<?xml version="1.0" standalone="no"?>
<!DOCTYPE svg PUBLIC "-//W3C//DTD SVG 20010904//EN"
 "http://www.w3.org/TR/2001/REC-SVG-20010904/DTD/svg10.dtd">
<svg version="1.0" xmlns="http://www.w3.org/2000/svg"
 width="367.000000pt" height="140.000000pt" viewBox="0 0 367.000000 140.000000"
 preserveAspectRatio="xMidYMid meet">

<g transform="translate(0.000000,140.000000) scale(0.100000,-0.100000)"
fill="#000000" stroke="none">
<path d="M1641 1243 c-1 -12 -6 -25 -12 -29 -8 -4 -7 -9 2 -15 10 -6 11 -15 3
-36 -9 -26 -14 -28 -66 -31 -52 -3 -57 -1 -60 20 -4 30 -27 33 -58 7 l-25 -20
24 11 c23 12 24 11 17 -20 -3 -18 -6 -39 -6 -46 0 -10 -16 -14 -65 -14 -53 0
-63 3 -59 15 4 9 0 15 -8 15 -10 0 -15 -11 -15 -30 0 -34 -22 -65 -30 -43 -4
10 -8 9 -19 -1 -19 -20 -18 -26 5 -26 48 0 51 -7 51 -112 0 -76 -4 -104 -14
-112 -8 -6 -18 -23 -22 -38 -6 -28 -6 -28 47 -28 30 0 78 3 107 6 l52 7 0 38
c0 29 -4 39 -16 39 -10 0 -14 6 -10 18 3 9 8 29 11 44 4 14 15 34 26 44 13 12
19 30 19 61 l0 43 55 0 c40 0 55 4 55 14 0 7 -8 16 -17 18 -26 6 -54 -2 -48
-13 4 -5 -6 -9 -22 -8 -25 0 -26 1 -8 9 17 7 17 9 3 9 -10 1 -18 8 -18 16 0
17 3 17 175 6 86 -6 122 -5 127 3 13 20 9 26 -19 27 -28 1 -28 1 -3 8 18 5 4
10 -59 20 l-82 14 2 36 c1 20 -1 43 -4 51 -3 8 -8 22 -10 30 -4 10 -6 7 -6 -7z
m-68 -130 c-7 -2 -19 -2 -25 0 -7 3 -2 5 12 5 14 0 19 -2 13 -5z m47 -3 c0 -5
-4 -10 -10 -10 -5 0 -10 5 -10 10 0 6 5 10 10 10 6 0 10 -4 10 -10z m75 0 c3
-5 -1 -10 -9 -10 -9 0 -16 5 -16 10 0 6 4 10 9 10 6 0 13 -4 16 -10z m60 -10
c7 -12 -2 -12 -30 0 -19 8 -19 9 2 9 12 1 25 -3 28 -9z m-370 -49 c3 -5 1 -12
-5 -16 -5 -3 -10 1 -10 9 0 18 6 21 15 7z m56 -6 c-1 -15 -24 -12 -29 3 -3 9
2 13 12 10 10 -1 17 -7 17 -13z m172 -22 c-7 -2 -19 -2 -25 0 -7 3 -2 5 12 5
14 0 19 -2 13 -5z m-200 -43 c20 0 20 -4 -16 -100 -23 -63 -30 -55 -42 49 -7
64 -7 64 16 58 13 -4 32 -7 42 -7z m-59 -127 c6 -53 5 -63 -9 -63 -13 0 -15
16 -14 98 1 103 10 90 23 -35z"/>
<path d="M1874 1219 c-4 -8 -3 -10 4 -5 6 4 20 1 30 -5 13 -8 24 -9 37 -1 17
9 17 10 -5 9 -14 0 -32 3 -41 7 -10 4 -20 2 -25 -5z"/>
<path d="M2087 1174 c-3 -4 -21 -9 -39 -13 -32 -7 -32 -7 -7 -12 17 -4 34 1
49 13 12 10 18 18 13 18 -5 0 -12 -3 -16 -6z"/>
<path d="M1948 1017 c-64 -18 -78 -25 -78 -42 0 -14 -3 -16 -8 -7 -7 10 -24 9
-87 -3 -110 -21 -201 -71 -157 -86 10 -4 -1 -9 -31 -13 -44 -7 -47 -9 -47 -37
0 -17 -6 -32 -15 -35 -9 -4 -15 -19 -15 -35 0 -35 2 -35 145 -14 55 8 106 15
113 15 8 0 12 16 12 44 l0 44 53 10 c28 6 61 12 72 15 11 2 37 7 57 11 27 5
38 12 41 29 2 12 2 -8 -1 -45 -3 -38 -2 -68 3 -68 12 0 126 30 178 46 44 15
47 18 47 51 l0 35 -46 -7 c-26 -3 -53 -9 -60 -12 -11 -4 -14 5 -14 36 0 23 5
41 10 41 6 0 10 9 10 20 0 12 -7 20 -17 20 -10 0 -34 2 -53 5 -19 2 -70 -6
-112 -18z m-151 -103 c-3 -3 -12 -4 -19 -1 -8 3 -5 6 6 6 11 1 17 -2 13 -5z
m-114 -34 c-6 -24 -10 -25 -29 -6 -14 14 -10 18 28 25 3 0 4 -8 1 -19z m-3
-40 c0 -5 -5 -10 -11 -10 -5 0 -7 5 -4 10 3 6 8 10 11 10 2 0 4 -4 4 -10z"/>
<path d="M2188 993 c7 -3 16 -2 19 1 4 3 -2 6 -13 5 -11 0 -14 -3 -6 -6z"/>
<path d="M2264 984 c3 -9 6 -18 6 -20 0 -3 5 -2 10 1 6 3 10 1 10 -4 0 -8 6
-7 19 1 16 9 17 14 6 25 -20 19 -59 17 -51 -3z"/>
<path d="M2166 975 c4 -8 11 -15 16 -15 6 0 5 6 -2 15 -7 8 -14 15 -16 15 -2
0 -1 -7 2 -15z"/>
<path d="M2350 956 c0 -19 3 -37 8 -40 4 -2 29 1 55 7 39 8 47 14 47 32 0 23
-30 35 -86 35 -21 0 -24 -5 -24 -34z"/>
<path d="M2310 950 c0 -5 5 -10 10 -10 6 0 10 5 10 10 0 6 -4 10 -10 10 -5 0
-10 -4 -10 -10z"/>
<path d="M2565 933 c-80 -7 -192 -36 -305 -80 -63 -24 -160 -55 -215 -68 -136
-33 -416 -72 -615 -85 -201 -14 -207 -15 -221 -41 -15 -29 -4 -37 66 -50 48
-9 79 -7 170 7 158 26 379 25 565 -4 119 -18 179 -22 330 -20 l184 3 38 65
c24 40 44 64 53 62 11 -2 15 6 15 28 0 17 12 58 26 91 14 34 23 68 20 75 -7
18 -36 18 -36 0 0 -16 -41 -118 -46 -113 -2 1 5 30 15 62 18 57 19 77 3 73 -4
-1 -25 -3 -47 -5z m-185 -203 c0 -9 -31 -30 -44 -30 -12 0 -6 28 7 33 20 9 37
8 37 -3z"/>
<path d="M273 903 c-32 -127 -99 -470 -93 -476 4 -4 36 -7 71 -5 l64 3 27 130
c14 72 27 135 28 140 1 6 16 -42 34 -105 l32 -115 40 -3 39 -3 64 116 c35 64
65 114 67 112 2 -1 -1 -43 -6 -92 -5 -50 -10 -111 -10 -137 l0 -48 64 0 c36 0
67 4 70 8 6 10 34 322 38 427 l3 70 -76 3 -76 3 -61 -103 c-34 -57 -64 -111
-68 -120 -11 -32 -21 -19 -38 50 -10 37 -24 91 -32 120 l-15 52 -80 0 c-77 0
-79 0 -86 -27z"/>
<path d="M846 912 c-2 -4 -4 -38 -5 -77 0 -38 -4 -92 -9 -120 -4 -27 -8 -73
-8 -102 1 -28 -3 -49 -7 -46 -4 3 -8 -17 -7 -44 1 -26 -2 -58 -6 -71 -6 -23
-5 -23 60 -21 37 1 78 8 92 15 13 7 28 14 32 15 14 4 80 48 87 59 4 6 -19 10
-67 10 l-73 0 3 50 4 50 83 0 c46 0 86 3 88 8 3 4 8 26 12 50 l7 43 -34 -2
c-18 -2 -57 -2 -86 -1 l-53 2 3 43 3 42 96 3 95 3 16 50 16 50 -169 -1 c-93
-1 -171 -5 -173 -8z"/>
<path d="M1945 860 c-3 -5 -1 -10 4 -10 6 0 11 5 11 10 0 6 -2 10 -4 10 -3 0
-8 -4 -11 -10z"/>
<path d="M1970 856 c0 -8 -7 -17 -16 -20 -25 -10 -36 -7 -28 7 4 6 3 8 -1 4
-14 -12 -18 -60 -5 -52 6 3 7 12 4 18 -5 8 -3 8 7 0 7 -7 21 -13 31 -13 14 0
18 8 18 35 0 19 -2 35 -5 35 -3 0 -5 -6 -5 -14z"/>
<path d="M2880 836 l-75 -11 1 -57 c2 -107 34 -118 34 -11 0 28 5 55 10 58 6
4 10 -13 10 -44 0 -42 3 -51 18 -50 11 0 12 2 4 6 -8 3 -10 9 -3 17 5 6 11 27
13 46 3 31 6 35 33 35 32 0 31 5 34 -122 1 -21 7 -33 19 -36 9 -3 -44 -5 -119
-6 -198 -2 -259 -9 -259 -32 0 -14 7 -19 28 -19 15 0 32 4 38 9 5 6 9 0 10
-17 l1 -28 -151 -4 c-262 -8 -405 -3 -558 19 -176 25 -327 27 -480 5 -70 -10
-152 -14 -215 -12 -90 4 -105 2 -119 -14 -17 -17 17 -18 1097 -17 770 1 1088
5 1032 11 -46 6 -83 14 -83 19 0 5 -16 9 -35 9 -19 0 -35 -4 -35 -10 0 -5 -17
-10 -37 -10 -37 0 -38 1 -39 36 0 24 -7 42 -20 52 -12 9 -14 13 -4 10 8 -2 22
-18 30 -36 14 -29 19 -32 66 -32 28 0 66 3 83 6 31 6 32 8 29 53 l-3 46 -45 3
c-84 4 -110 12 -110 31 0 15 11 20 56 25 30 3 60 4 65 1 5 -4 9 -2 9 3 0 14
-25 22 -78 23 -31 1 -37 3 -19 6 48 7 24 27 -49 40 -82 14 -87 14 -184 -1z
m180 -65 c5 -11 10 -30 10 -42 0 -18 -2 -19 -15 -9 -8 7 -15 23 -15 36 0 17
-6 24 -19 24 -15 0 -21 -8 -24 -32 -4 -32 -4 -32 -5 5 -2 35 0 37 28 37 19 0
33 -7 40 -19z m50 -122 c0 -5 -4 -9 -10 -9 -5 0 -10 7 -10 16 0 8 5 12 10 9 6
-3 10 -10 10 -16z m90 -9 c0 -5 -13 -10 -30 -10 -16 0 -30 5 -30 10 0 6 14 10
30 10 17 0 30 -4 30 -10z m-213 -76 c-1 -1 -14 0 -28 3 -20 4 -25 10 -22 23 8
29 37 29 45 1 4 -14 6 -26 5 -27z m-119 21 l12 -25 -71 0 c-61 0 -70 2 -65 16
3 9 6 20 6 25 0 5 24 9 53 9 48 0 55 -3 65 -25z"/>
<path d="M1830 829 c0 -5 -5 -7 -10 -4 -6 4 -10 -5 -8 -24 2 -28 3 -29 20 -14
22 19 24 31 3 13 -8 -7 -15 -8 -15 -2 0 5 6 15 14 21 11 9 15 8 20 -5 3 -9 4
-19 1 -23 -2 -4 2 -8 9 -8 15 0 16 38 1 49 -15 11 -35 10 -35 -3z"/>
<path d="M2751 763 c3 -70 7 -83 25 -83 11 0 14 17 14 70 0 64 -2 70 -21 70
-19 0 -20 -5 -18 -57z"/>
<path d="M2651 750 c-1 -53 11 -92 22 -73 3 5 8 36 10 69 4 52 3 60 -13 60
-14 0 -18 -10 -19 -56z"/>
<path d="M2700 745 c0 -36 4 -65 9 -65 13 0 17 18 20 78 2 42 -1 52 -13 52
-13 0 -16 -13 -16 -65z"/>
<path d="M1110 432 c0 -10 -13 -59 -29 -110 -16 -51 -25 -95 -20 -98 11 -6 23
21 45 101 18 66 25 61 38 -27 6 -41 11 -48 29 -48 16 0 29 12 45 43 12 23 32
53 43 67 l20 25 -5 -35 c-18 -128 -18 -120 8 -120 26 0 29 9 42 148 7 71 6 72
-17 72 -19 0 -32 -14 -59 -61 -51 -89 -55 -89 -70 -9 -13 67 -14 70 -42 70
-20 0 -28 -5 -28 -18z"/>
<path d="M1968 438 c-9 -8 -22 -50 -32 -98 -20 -107 -20 -110 4 -110 14 0 21
9 26 38 7 41 29 72 52 72 10 0 12 -7 8 -25 -3 -14 -9 -35 -12 -48 -8 -34 16
-51 50 -36 20 9 29 9 40 0 12 -10 21 -10 45 2 26 13 31 13 44 0 12 -12 19 -13
37 -3 17 9 20 14 10 20 -11 7 -11 20 -3 64 9 55 9 57 -14 62 -58 15 -120 -27
-129 -88 -4 -24 -12 -38 -21 -38 -12 0 -13 12 -8 65 7 57 5 65 -10 65 -9 0
-30 -10 -47 -21 l-30 -22 7 34 c4 19 9 44 12 57 6 25 -5 28 -29 10z m227 -115
c-7 -37 -30 -73 -47 -73 -14 0 -9 64 8 88 8 12 22 22 31 22 12 0 14 -7 8 -37z"/>
<path d="M2370 426 c0 -12 -9 -60 -19 -108 l-18 -88 68 0 c78 0 94 17 22 22
-43 3 -48 5 -48 28 0 32 17 50 49 50 14 0 28 5 31 10 4 6 -7 10 -24 10 -26 0
-31 4 -31 24 0 45 10 56 50 56 22 0 42 5 45 11 5 7 -15 9 -59 8 -60 -2 -66 -4
-66 -23z"/>
<path d="M1844 398 c-11 -13 -19 -38 -19 -58 0 -19 -3 -50 -7 -67 -9 -41 12
-55 62 -40 l35 11 -29 4 c-27 3 -28 4 -21 50 9 57 11 62 36 62 10 0 19 5 19
10 0 6 -9 10 -21 10 -16 0 -19 4 -14 20 9 28 -16 26 -41 -2z"/>
<path d="M3160 390 c0 -11 -3 -20 -7 -20 -5 0 -8 -15 -8 -32 0 -18 -4 -48 -9
-66 -9 -37 7 -49 52 -37 26 8 27 8 4 14 -27 7 -26 3 -18 67 7 44 10 51 29 49
13 -1 15 0 5 2 -10 2 -18 13 -18 24 0 10 -7 19 -15 19 -8 0 -15 -9 -15 -20z"/>
<path d="M1405 371 c-53 -22 -85 -112 -50 -141 15 -12 21 -12 45 2 25 14 30
14 43 1 11 -11 20 -12 33 -5 11 5 34 7 52 5 27 -4 32 -2 32 14 0 46 22 84 51
90 20 4 29 12 29 24 0 23 -9 24 -35 5 -17 -12 -21 -12 -30 1 -16 22 -45 5 -45
-26 0 -14 -3 -42 -6 -62 -5 -30 -10 -36 -25 -32 -21 6 -22 17 -10 80 6 33 5
43 -6 47 -20 8 -54 6 -78 -3z m45 -30 c0 -42 -28 -90 -52 -91 -14 0 -8 65 8
88 19 27 44 29 44 3z"/>
<path d="M1691 366 c-32 -18 -50 -53 -51 -97 0 -44 19 -55 58 -35 23 12 29 12
40 0 10 -11 17 -11 39 -1 21 9 23 13 10 15 -15 3 -16 10 -10 40 15 76 11 87
-27 89 -19 2 -46 -3 -59 -11z m53 -38 c-8 -42 -32 -80 -47 -75 -32 10 -3 107
32 107 18 0 20 -5 15 -32z"/>
<path d="M2920 370 c0 -5 5 -12 10 -15 13 -8 13 -44 -1 -84 -9 -24 -16 -31
-33 -29 -17 2 -22 11 -24 41 -2 23 3 48 13 63 22 34 2 30 -29 -7 -28 -32 -34
-77 -14 -97 21 -21 73 -14 102 13 23 21 27 32 24 66 -2 33 -8 44 -25 50 -13 5
-23 4 -23 -1z"/>
<path d="M3290 373 c-18 -8 -39 -34 -40 -50 0 -7 14 -19 30 -28 19 -10 30 -23
30 -37 0 -18 -4 -20 -40 -15 -22 3 -40 1 -40 -4 0 -18 79 -10 100 11 24 24 16
48 -24 70 -32 17 -33 34 -3 48 23 11 13 15 -13 5z"/>
<path d="M2530 358 c1 -7 7 -24 15 -38 13 -23 11 -27 -18 -60 l-32 -35 32 29
c18 16 34 28 35 25 2 -2 8 -13 14 -24 6 -11 20 -21 32 -23 l21 -3 -20 41 -20
42 23 26 c18 22 19 23 2 9 -27 -22 -40 -22 -47 3 -6 22 -37 28 -37 8z"/>
<path d="M2682 343 c-1 -16 -9 -54 -17 -86 -19 -73 -19 -98 -2 -91 8 3 14 11
15 19 1 8 3 22 4 30 1 10 12 15 32 15 37 1 72 27 86 66 16 42 5 74 -25 74 -22
0 -24 -2 -13 -19 8 -13 9 -32 2 -62 -8 -37 -13 -44 -35 -47 -14 -2 -31 4 -39
12 -8 11 -9 16 -1 16 6 0 11 10 11 22 0 12 10 32 22 45 17 19 19 23 5 17 -10
-3 -17 -1 -17 5 0 24 -26 9 -28 -16z"/>
<path d="M3014 348 c0 -13 -4 -42 -8 -64 -6 -33 -4 -43 8 -47 11 -5 17 1 21
21 3 15 9 38 13 52 11 35 4 60 -16 60 -11 0 -17 -8 -18 -22z"/>
<path d="M3077 363 c-12 -12 -7 -19 13 -19 11 0 22 6 24 13 6 13 -25 19 -37 6z"/>
</g>
</svg>
