<?xml version="1.0" encoding="UTF-8"?>
<svg version="1.1" xmlns="http://www.w3.org/2000/svg" width="341" height="341">
<path d="M0 0 C1.32 0 2.64 0 4 0 C4.99 2.475 4.99 2.475 6 5 C5.34 5 4.68 5 4 5 C4.16371094 5.54140625 4.32742187 6.0828125 4.49609375 6.640625 C5.08590587 9.40222593 5.09609308 11.92818139 5.0625 14.75 C5.05347656 15.73484375 5.04445312 16.7196875 5.03515625 17.734375 C5.01775391 18.85585937 5.01775391 18.85585937 5 20 C5.83402344 20.06058594 6.66804687 20.12117188 7.52734375 20.18359375 C14.03706466 20.66828087 20.51769975 21.23091353 27 22 C27.33 23.65 27.66 25.3 28 27 C24.99707398 27.84457294 22.89147095 27.9841948 19.78125 27.53125 C13.06414925 26.62164261 6.26402603 26.89540355 -0.5 26.9375 C-1.90885258 26.94252467 -3.31770689 26.94708587 -4.7265625 26.95117188 C-8.15108638 26.9628997 -11.57552047 26.97931309 -15 27 C-14.67 27.66 -14.34 28.32 -14 29 C-11.97536745 29.65213292 -11.97536745 29.65213292 -10 30 C-9.86489747 32.91821463 -9.7658695 35.83017652 -9.6875 38.75 C-9.6246582 39.9875 -9.6246582 39.9875 -9.56054688 41.25 C-9.51318497 43.59915059 -9.52779061 45.69667691 -10 48 C-12.46875 50.25 -12.46875 50.25 -15 52 C-15.80732404 54.56270919 -15.80732404 54.56270919 -15.8125 57.25 C-15.86019531 58.14203125 -15.90789062 59.0340625 -15.95703125 59.953125 C-15.97121094 60.62859375 -15.98539063 61.3040625 -16 62 C-13.36 61.01 -10.72 60.02 -8 59 C-7.67 54.71 -7.34 50.42 -7 46 C-5.40285156 45.60941406 -5.40285156 45.60941406 -3.7734375 45.2109375 C0.84866259 44.05591995 5.44016047 42.79672401 10.03466797 41.53710938 C15.68194899 39.99506567 21.33898011 38.49073524 27 37 C28.37091797 36.63793457 28.37091797 36.63793457 29.76953125 36.26855469 C41.09102918 33.33253637 51.77727712 31.32386547 63 36 C63 37.32 63 38.64 63 40 C63.66 39.67 64.32 39.34 65 39 C67.1069275 39.06323657 69.21198711 39.19896608 71.3125 39.375 C73.00826172 39.51035156 73.00826172 39.51035156 74.73828125 39.6484375 C77.54922802 39.9514138 80.24217925 40.38945057 83 41 C83 43.64 83 46.28 83 49 C83.84820312 48.7834375 84.69640625 48.566875 85.5703125 48.34375 C105.99254844 43.49627422 105.99254844 43.49627422 113 47 C112.35649255 51.66769487 110.46922478 55.61612045 108.4375 59.8125 C108.08034912 60.55951172 107.72319824 61.30652344 107.35522461 62.07617188 C106.24518844 64.38828056 105.12494099 66.69510988 104 69 C103.66516602 69.68626465 103.33033203 70.3725293 102.98535156 71.07958984 C97.87713851 81.50269189 92.47248943 91.76441792 87 102 C91.95 103.98 96.9 105.96 102 108 C102 108.66 102 109.32 102 110 C97.15300757 110.1472504 93.07256503 109.6452303 88.375 108.5 C75.87540682 105.77000644 62.71408159 106.74865715 50 107 C51.4042912 107.47719737 52.8094037 107.95197814 54.21484375 108.42578125 C54.99722412 108.69044189 55.77960449 108.95510254 56.58569336 109.2277832 C60.02195611 110.32687301 63.48966639 111.17028478 67 112 C67 112.66 67 113.32 67 114 C52.76510502 114.3732927 38.73414671 113.98015375 24.5625 112.6875 C8.95220282 111.26444925 -6.6638145 110.22064132 -22.3125 109.3125 C-23.44098358 109.24606293 -24.56946716 109.17962585 -25.73214722 109.11117554 C-28.9632017 108.92152611 -32.19443057 108.73530919 -35.42578125 108.55078125 C-36.39095673 108.49467682 -37.3561322 108.43857239 -38.35055542 108.38076782 C-43.24321463 108.10803155 -48.0997902 107.94058564 -53 108 C-51.56720703 108.16435547 -51.56720703 108.16435547 -50.10546875 108.33203125 C-42.17230011 109.30489241 -34.65672077 110.61224924 -27 113 C-27 113.33 -27 113.66 -27 114 C-29.77090729 114.02792628 -32.54151317 114.04726284 -35.3125 114.0625 C-36.43301758 114.07506836 -36.43301758 114.07506836 -37.57617188 114.08789062 C-43.41713306 114.11153824 -49.21802042 113.84184386 -55.046875 113.5078125 C-64.34895004 112.98525613 -73.6218797 112.80269421 -82.9375 112.8125 C-83.74718231 112.81210724 -84.55686462 112.81171448 -85.39108276 112.81130981 C-110.93956348 112.82582442 -136.52895727 114.02885275 -162 116 C-161.67 115.01 -161.34 114.02 -161 113 C-134.15669211 107.79201044 -107.32922173 103.27126429 -80.1685791 100.08886719 C-78.61605763 99.90675701 -77.06372374 99.72303933 -75.51159668 99.53759766 C-67.31542673 98.56316264 -59.27088174 97.76275413 -51 98 C-51 97.34 -51 96.68 -51 96 C-51.80904785 96.06566162 -52.6180957 96.13132324 -53.45166016 96.19897461 C-63.0916232 96.93920305 -72.71236557 97.30212325 -82.375 97.5625 C-83.90104946 97.6058463 -85.42709122 97.64946469 -86.953125 97.69335938 C-90.63533358 97.79869587 -94.31763128 97.90039862 -98 98 C-99.10596729 94.68209812 -98.88829052 93.55334397 -98.15136719 90.21582031 C-97.8354361 88.75719574 -97.8354361 88.75719574 -97.51312256 87.269104 C-97.15858002 85.6895694 -97.15858002 85.6895694 -96.796875 84.078125 C-96.55841858 82.98594666 -96.31996216 81.89376831 -96.07427979 80.76849365 C-95.3068968 77.26066231 -94.52879808 73.75531291 -93.75 70.25 C-92.98971411 66.79612982 -92.23164801 63.34177857 -91.47399902 59.8873291 C-90.98151451 57.64225323 -90.48810847 55.39737931 -89.99377441 53.15270996 C-88.73864346 47.43932296 -87.52016324 41.7238986 -86.390625 35.984375 C-84.72695149 27.62862152 -82.84819691 19.31688607 -81 11 C-61.2 11 -41.4 11 -21 11 C-21.75534952 14.02139806 -22.42871597 16.11346549 -23.77734375 18.8203125 C-24.30038086 19.87025391 -24.30038086 19.87025391 -24.83398438 20.94140625 C-25.19814453 21.66199219 -25.56230469 22.38257813 -25.9375 23.125 C-26.47793945 24.21748047 -26.47793945 24.21748047 -27.02929688 25.33203125 C-27.37927734 26.02941406 -27.72925781 26.72679687 -28.08984375 27.4453125 C-28.40816162 28.07969238 -28.72647949 28.71407227 -29.05444336 29.36767578 C-30 31 -30 31 -32 33 C-34.98095703 33.22705078 -34.98095703 33.22705078 -38.7578125 33.1953125 C-39.42086395 33.1924826 -40.08391541 33.18965271 -40.76705933 33.18673706 C-42.88655583 33.17553435 -45.00563104 33.15043051 -47.125 33.125 C-48.56119182 33.11497028 -49.99739025 33.10584441 -51.43359375 33.09765625 C-54.95586628 33.075595 -58.47789203 33.04106494 -62 33 C-62.99 36.96 -63.98 40.92 -65 45 C-55.76 45 -46.52 45 -37 45 C-38.16766467 54.34131737 -38.16766467 54.34131737 -38.9375 58.375 C-39.16759766 59.62410156 -39.16759766 59.62410156 -39.40234375 60.8984375 C-40 63 -40 63 -42 65 C-44.70556641 65.31884766 -44.70556641 65.31884766 -48.1015625 65.4140625 C-49.31328125 65.45273438 -50.525 65.49140625 -51.7734375 65.53125 C-53.04445313 65.5621875 -54.31546875 65.593125 -55.625 65.625 C-56.90375 65.66367188 -58.1825 65.70234375 -59.5 65.7421875 C-62.66652017 65.83671049 -65.8330304 65.92226357 -69 66 C-69.66 69.63 -70.32 73.26 -71 77 C-59.12 77.33 -47.24 77.66 -35 78 C-34.67 78.66 -34.34 79.32 -34 80 C-34.62084961 81.69580078 -34.62084961 81.69580078 -35.65234375 83.6953125 C-36.01650391 84.41074219 -36.38066406 85.12617188 -36.75585938 85.86328125 C-37.34077148 86.98283203 -37.34077148 86.98283203 -37.9375 88.125 C-38.32357422 88.87910156 -38.70964844 89.63320312 -39.10742188 90.41015625 C-40.06452132 92.27709097 -41.03136106 94.13902628 -42 96 C-32.93470049 96.15193239 -24.03494544 95.66925522 -15 95 C-20.61 95 -26.22 95 -32 95 C-32 94.34 -32 93.68 -32 93 C-35.465 93.495 -35.465 93.495 -39 94 C-36.87490852 88.5681073 -34.42768753 83.30258065 -32 78 C-35.96 77.67 -39.92 77.34 -44 77 C-43.34 75.02 -42.68 73.04 -42 71 C-39.36 71 -36.72 71 -34 71 C-34 68.03 -34 65.06 -34 62 C-31.525 61.505 -31.525 61.505 -29 61 C-29 55.39 -29 49.78 -29 44 C-26.69 43.34 -24.38 42.68 -22 42 C-22 39.69 -22 37.38 -22 35 C-23.98 34.01 -25.96 33.02 -28 32 C-26.74772034 26.99088137 -25.16160983 24.98782244 -21 22 C-20.67 21.34 -20.34 20.68 -20 20 C-13.73 20 -7.46 20 -1 20 C-1 17.7725 -1 15.545 -1 13.25 C-1 2 -1 2 0 0 Z M56 55 C55.01 55.99 54.02 56.98 53 58 C54.98 57.34 56.96 56.68 59 56 C58.01 55.67 57.02 55.34 56 55 Z M96 55 C95.67 56.32 95.34 57.64 95 59 C95.99 59 96.98 59 98 59 C98 57.68 98 56.36 98 55 C97.34 55 96.68 55 96 55 Z M40 62 C43.93075644 61.42547254 43.93075644 61.42547254 47 59 C43.48283697 59 42.62878252 59.82445585 40 62 Z M13 69 C13 69.33 13 69.66 13 70 C14.258125 69.87625 15.51625 69.7525 16.8125 69.625 C17.52019531 69.55539063 18.22789062 69.48578125 18.95703125 69.4140625 C21.29988142 69.07334609 21.29988142 69.07334609 24 67 C19.91621923 67 16.87684087 67.80712589 13 69 Z M8 70 C7.67 70.66 7.34 71.32 7 72 C8.65 71.67 10.3 71.34 12 71 C10.68 70.67 9.36 70.34 8 70 Z M-4 73 C0 74 0 74 0 74 Z M-28 76 C-28 76.33 -28 76.66 -28 77 C-20.40501039 77.26442904 -13.42640842 76.60881575 -6 75 C-6 74.67 -6 74.34 -6 74 C-13.47093223 73.70116271 -20.63044989 74.84074493 -28 76 Z M-1 88 C-1 88.33 -1 88.66 -1 89 C10.22 89 21.44 89 33 89 C33 88.67 33 88.34 33 88 C21.78 88 10.56 88 -1 88 Z M-10 89 C-10 89.33 -10 89.66 -10 90 C-8.02 90 -6.04 90 -4 90 C-4 89.67 -4 89.34 -4 89 C-5.98 89 -7.96 89 -10 89 Z M33 89 C33 89.33 33 89.66 33 90 C35.97 90 38.94 90 42 90 C42 89.67 42 89.34 42 89 C39.03 89 36.06 89 33 89 Z M-26 91 C-26 91.33 -26 91.66 -26 92 C-19.565 91.505 -19.565 91.505 -13 91 C-13 90.67 -13 90.34 -13 90 C-17.51617599 89.92345464 -21.59085217 89.89771304 -26 91 Z M43 90 C43 90.33 43 90.66 43 91 C48.38027025 92.19088986 53.45291384 93.2919519 59 93 C53.85913339 89.57275559 48.99202204 89.8984403 43 90 Z M63 94 C66.24118159 96.16078773 69.28209585 97.34884727 72.9375 98.6875 C74.16339844 99.14511719 75.38929688 99.60273438 76.65234375 100.07421875 C79.95923806 100.98872745 80.89733763 100.96654172 84 100 C81.44114774 98.98968935 78.87859624 97.99159855 76.3125 97 C75.59126953 96.71382813 74.87003906 96.42765625 74.12695312 96.1328125 C70.28959679 94.6609498 67.18433411 93.60385002 63 94 Z M-50 96 C-50 96.33 -50 96.66 -50 97 C-48.35 97 -46.7 97 -45 97 C-45 96.67 -45 96.34 -45 96 C-46.65 96 -48.3 96 -50 96 Z " fill="#182F5A" transform="translate(210,112)"/>
<path d="M0 0 C8.91 0 17.82 0 27 0 C29.93461874 6.45616123 32.74812025 12.67981042 35.125 19.3125 C36.82085503 24.02881034 38.66976311 28.55324616 41 33 C41.55429688 32.278125 42.10859375 31.55625 42.6796875 30.8125 C43.40414062 29.884375 44.12859375 28.95625 44.875 28 C45.59429687 27.071875 46.31359375 26.14375 47.0546875 25.1875 C47.69664063 24.465625 48.33859375 23.74375 49 23 C49.66 23 50.32 23 51 23 C51.27328125 22.41573242 51.5465625 21.83146484 51.828125 21.22949219 C53.75768626 17.55850188 56.41376044 14.47669983 59 11.25 C59.5465625 10.55261719 60.093125 9.85523438 60.65625 9.13671875 C61.1821875 8.47800781 61.708125 7.81929687 62.25 7.140625 C62.72953125 6.53766602 63.2090625 5.93470703 63.703125 5.31347656 C64.13109375 4.8800293 64.5590625 4.44658203 65 4 C65.66 4 66.32 4 67 4 C67.33 2.68 67.66 1.36 68 0 C76.25 0 84.5 0 93 0 C92.4002427 5.39781571 91.82831611 10.3713436 90.75 15.625 C90.48703125 16.90632813 90.2240625 18.18765625 89.953125 19.5078125 C88.61589869 25.85529585 87.22461043 32.19123027 85.83691406 38.52783203 C84.67545907 43.8434535 83.54872831 49.16101953 82.5 54.5 C81.19557402 61.11958702 79.79696209 67.71718866 78.375 74.3125 C78.15650391 75.33472656 77.93800781 76.35695313 77.71289062 77.41015625 C77.50599609 78.3640625 77.29910156 79.31796875 77.0859375 80.30078125 C76.9007959 81.15841064 76.7156543 82.01604004 76.52490234 82.8996582 C76 85 76 85 75 87 C70.87573464 87.22512171 66.75066151 87.42725588 62.625 87.625 C61.449375 87.68945312 60.27375 87.75390625 59.0625 87.8203125 C57.38027344 87.89765625 57.38027344 87.89765625 55.6640625 87.9765625 C54.62717285 88.02893066 53.5902832 88.08129883 52.52197266 88.13525391 C50 88 50 88 48 86 C48.16081055 85.41210693 48.32162109 84.82421387 48.48730469 84.21850586 C50.06943011 78.43223759 51.64711908 72.64477664 53.22167969 66.85644531 C53.90780522 64.33835599 54.59787838 61.82139139 55.2890625 59.3046875 C55.65127243 57.97402113 56.01326939 56.64329675 56.375 55.3125 C56.85066406 53.57419922 56.85066406 53.57419922 57.3359375 51.80078125 C58.11535154 48.9932261 58.11535154 48.9932261 58 46 C57.38125 46.825 56.7625 47.65 56.125 48.5 C55.42375 49.325 54.7225 50.15 54 51 C53.34 51 52.68 51 52 51 C51.72800781 51.57878906 51.45601563 52.15757812 51.17578125 52.75390625 C48.11231548 58.60604185 43.70678741 63.42395668 39 68 C38.34 68.99 37.68 69.98 37 71 C34.8359375 71.29296875 34.8359375 71.29296875 32.375 71.1875 C31.55773437 71.16042969 30.74046875 71.13335937 29.8984375 71.10546875 C29.27195313 71.07066406 28.64546875 71.03585938 28 71 C27.62488281 69.96101563 27.24976563 68.92203125 26.86328125 67.8515625 C26.34666023 66.44259607 25.82971549 65.03374831 25.3125 63.625 C25.06822266 62.94566406 24.82394531 62.26632813 24.57226562 61.56640625 C22.45412975 55.82867109 19.81443407 50.42638075 17 45 C16.83918945 45.72888428 16.67837891 46.45776855 16.51269531 47.20874023 C11.09703723 71.73178256 11.09703723 71.73178256 8.6875 82.0625 C8.52862305 82.75077881 8.36974609 83.43905762 8.20605469 84.14819336 C7.63720934 86.56391078 7.11408692 88.77182615 6 91 C4.00976563 91.59423828 4.00976563 91.59423828 1.40625 92.0703125 C-0.016875 92.33134766 -0.016875 92.33134766 -1.46875 92.59765625 C-2.96921875 92.85869141 -2.96921875 92.85869141 -4.5 93.125 C-5.469375 93.30675781 -6.43875 93.48851562 -7.4375 93.67578125 C-13.38749283 94.73942244 -18.95795395 95.18725349 -25 95 C-24.73725854 93.51937458 -24.46421764 92.04057715 -24.1875 90.5625 C-24.03667969 89.73878906 -23.88585937 88.91507812 -23.73046875 88.06640625 C-22.18056779 81.56013752 -19.76069362 75.3013928 -17.50195312 69.01391602 C-14.64980586 61.04108452 -12.09357364 53.07179739 -9.92333984 44.88793945 C-8.02891472 37.84717405 -5.71350747 30.96451638 -3.32226562 24.07836914 C-0.37949482 15.50713585 0 9.45981917 0 0 Z " fill="#162E5A" transform="translate(33,123)"/>
<path d="M0 0 C19.8 0 39.6 0 60 0 C59.24465048 3.02139806 58.57128403 5.11346549 57.22265625 7.8203125 C56.87396484 8.52027344 56.52527344 9.22023437 56.16601562 9.94140625 C55.80185547 10.66199219 55.43769531 11.38257813 55.0625 12.125 C54.52206055 13.21748047 54.52206055 13.21748047 53.97070312 14.33203125 C53.62072266 15.02941406 53.27074219 15.72679687 52.91015625 16.4453125 C52.59183838 17.07969238 52.27352051 17.71407227 51.94555664 18.36767578 C51 20 51 20 49 22 C46.01904297 22.22705078 46.01904297 22.22705078 42.2421875 22.1953125 C41.57913605 22.1924826 40.91608459 22.18965271 40.23294067 22.18673706 C38.11344417 22.17553435 35.99436896 22.15043051 33.875 22.125 C32.43880818 22.11497028 31.00260975 22.10584441 29.56640625 22.09765625 C26.04413372 22.075595 22.52210797 22.04106494 19 22 C18.01 25.96 17.02 29.92 16 34 C25.24 34 34.48 34 44 34 C42.83233533 43.34131737 42.83233533 43.34131737 42.0625 47.375 C41.83240234 48.62410156 41.83240234 48.62410156 41.59765625 49.8984375 C41 52 41 52 39 54 C36.29443359 54.31884766 36.29443359 54.31884766 32.8984375 54.4140625 C31.68671875 54.45273438 30.475 54.49140625 29.2265625 54.53125 C27.95554688 54.5621875 26.68453125 54.593125 25.375 54.625 C24.09625 54.66367188 22.8175 54.70234375 21.5 54.7421875 C18.33347983 54.83671049 15.1669696 54.92226357 12 55 C11.34 58.63 10.68 62.26 10 66 C21.88 66.33 33.76 66.66 46 67 C46.33 67.66 46.66 68.32 47 69 C45.85342113 71.72275447 44.64647482 74.30885291 43.3125 76.9375 C42.95994141 77.66646484 42.60738281 78.39542969 42.24414062 79.14648438 C38.63434563 86.34627659 38.63434563 86.34627659 35 88 C32.3270555 88.21326685 29.9073788 88.28545631 27.25 88.1875 C26.55261719 88.17396484 25.85523438 88.16042969 25.13671875 88.14648438 C23.42414459 88.1112945 21.71197059 88.05749155 20 88 C20 87.67 20 87.34 20 87 C23.3 87 26.6 87 30 87 C30 86.34 30 85.68 30 85 C29.19095215 85.06566162 28.3819043 85.13132324 27.54833984 85.19897461 C17.9083768 85.93920305 8.28763443 86.30212325 -1.375 86.5625 C-2.90104946 86.6058463 -4.42709122 86.64946469 -5.953125 86.69335938 C-9.63533358 86.79869587 -13.31763128 86.90039862 -17 87 C-18.10596729 83.68209812 -17.88829052 82.55334397 -17.15136719 79.21582031 C-16.94074646 78.24340393 -16.73012573 77.27098755 -16.51312256 76.269104 C-16.27676086 75.21608093 -16.04039917 74.16305786 -15.796875 73.078125 C-15.55841858 71.98594666 -15.31996216 70.89376831 -15.07427979 69.76849365 C-14.3068968 66.26066231 -13.52879808 62.75531291 -12.75 59.25 C-11.98971411 55.79612982 -11.23164801 52.34177857 -10.47399902 48.8873291 C-9.98151451 46.64225323 -9.48810847 44.39737931 -8.99377441 42.15270996 C-7.73864346 36.43932296 -6.52016324 30.7238986 -5.390625 24.984375 C-3.72695149 16.62862152 -1.84819691 8.31688607 0 0 Z M31 85 C31 85.33 31 85.66 31 86 C32.65 86 34.3 86 36 86 C36 85.67 36 85.34 36 85 C34.35 85 32.7 85 31 85 Z " fill="#F37B2B" transform="translate(129,123)"/>
<path d="M0 0 C2 2 2 2 2 6 C1.34 6 0.68 6 0 6 C0.7425 6.6496875 0.7425 6.6496875 1.5 7.3125 C3 9 3 9 3 12 C4.41433206 12.2236337 5.83167618 12.42826476 7.25 12.625 C8.03890625 12.74101562 8.8278125 12.85703125 9.640625 12.9765625 C12.39038467 13.00387799 13.58883593 12.2599692 16 11 C21.24191629 9.82471199 26.33935994 9.9034186 31.67578125 9.97265625 C33.57486795 9.98530518 35.47395659 9.99766594 37.37304688 10.00976562 C40.34177817 10.03452344 43.31040642 10.0624764 46.27905273 10.09594727 C49.16130178 10.12636741 52.04342174 10.14399091 54.92578125 10.16015625 C55.80107986 10.17361588 56.67637848 10.1870755 57.57820129 10.20094299 C62.70401231 10.22153992 67.18656008 9.67623829 72.12297058 8.26097107 C74 8 74 8 76.6875 9.75 C77.450625 10.4925 78.21375 11.235 79 12 C84.00191709 14.27359868 88.61901754 14.2152393 94 14 C94.33 14.66 94.66 15.32 95 16 C97.03389047 16.78672225 99.10566072 17.47570225 101.1875 18.125 C108.12287865 20.34002284 114.97298117 22.75508118 121.8125 25.25 C122.78533936 25.60336426 123.75817871 25.95672852 124.76049805 26.32080078 C131.73273512 28.86636756 131.73273512 28.86636756 134 30 C134 30.66 134 31.32 134 32 C129.15300757 32.1472504 125.07256503 31.6452303 120.375 30.5 C107.87540682 27.77000644 94.71408159 28.74865715 82 29 C83.4042912 29.47719737 84.8094037 29.95197814 86.21484375 30.42578125 C87.38841431 30.82277222 87.38841431 30.82277222 88.58569336 31.2277832 C92.02195611 32.32687301 95.48966639 33.17028478 99 34 C99 34.66 99 35.32 99 36 C84.76510502 36.3732927 70.73414671 35.98015375 56.5625 34.6875 C40.95220282 33.26444925 25.3361855 32.22064132 9.6875 31.3125 C7.99477463 31.21284439 7.99477463 31.21284439 6.26785278 31.11117554 C3.0367983 30.92152611 -0.19443057 30.73530919 -3.42578125 30.55078125 C-4.39095673 30.49467682 -5.3561322 30.43857239 -6.35055542 30.38076782 C-11.24321463 30.10803155 -16.0997902 29.94058564 -21 30 C-20.04480469 30.10957031 -19.08960938 30.21914062 -18.10546875 30.33203125 C-10.17230011 31.30489241 -2.65672077 32.61224924 5 35 C5 35.33 5 35.66 5 36 C2.22909271 36.02792628 -0.54151317 36.04726284 -3.3125 36.0625 C-4.43301758 36.07506836 -4.43301758 36.07506836 -5.57617188 36.08789062 C-11.41713306 36.11153824 -17.21802042 35.84184386 -23.046875 35.5078125 C-32.34895004 34.98525613 -41.6218797 34.80269421 -50.9375 34.8125 C-51.74718231 34.81210724 -52.55686462 34.81171448 -53.39108276 34.81130981 C-78.93956348 34.82582442 -104.52895727 36.02885275 -130 38 C-129.67 37.01 -129.34 36.02 -129 35 C-107.41344948 30.81189732 -85.80928648 26.84715546 -64 24 C-62.99066406 23.86706543 -61.98132813 23.73413086 -60.94140625 23.59716797 C-47.75980197 21.88896435 -34.67960627 20.65126824 -21.38745117 20.29052734 C-20.44490479 20.2642627 -19.5023584 20.23799805 -18.53125 20.2109375 C-17.28698242 20.18459229 -17.28698242 20.18459229 -16.01757812 20.15771484 C-13.93013577 20.12179638 -13.93013577 20.12179638 -12 19 C-9.82449886 18.77627304 -7.64327619 18.60717019 -5.4609375 18.46484375 C-4.15898437 18.37783203 -2.85703125 18.29082031 -1.515625 18.20117188 C-0.13542255 18.11318888 1.24478587 18.02529947 2.625 17.9375 C4.01304676 17.84609599 5.40106802 17.75430391 6.7890625 17.66210938 C10.19245805 17.43757981 13.59619926 17.21830104 17 17 C11.39 17 5.78 17 0 17 C0 16.34 0 15.68 0 15 C-2.31 15.33 -4.62 15.66 -7 16 C-5.56835889 12.34061828 -4.01065704 8.76011932 -2.375 5.1875 C-1.70597656 3.72376953 -1.70597656 3.72376953 -1.0234375 2.23046875 C-0.68570313 1.49441406 -0.34796875 0.75835937 0 0 Z M22 11 C22 11.33 22 11.66 22 12 C23.98 12 25.96 12 28 12 C28 11.67 28 11.34 28 11 C26.02 11 24.04 11 22 11 Z M65 11 C65 11.33 65 11.66 65 12 C67.97 12 70.94 12 74 12 C74 11.67 74 11.34 74 11 C71.03 11 68.06 11 65 11 Z " fill="#243A62" transform="translate(178,190)"/>
<path d="M0 0 C0 1.32 0 2.64 0 4 C0.66 3.67 1.32 3.34 2 3 C3.99960012 2.960008 6.00047242 2.95653201 8 3 C8 3.33 8 3.66 8 4 C6.35 4 4.7 4 3 4 C3 7.96 3 11.92 3 16 C3.66 16.33 4.32 16.66 5 17 C3.68 17 2.36 17 1 17 C1 17.66 1 18.32 1 19 C-2.48547718 21.11618257 -2.48547718 21.11618257 -4.9375 20.5625 C-5.618125 20.376875 -6.29875 20.19125 -7 20 C-9.68149993 20.38567131 -9.68149993 20.38567131 -12 21 C-12 21.99 -12 22.98 -12 24 C-15.05847848 24.54372951 -17.88772805 25 -21 25 C-21.495 25.495 -21.99 25.99 -22.5 26.5 C-22.995 26.995 -23.49 27.49 -24 28 C-24.99 28 -25.98 28 -27 28 C-27.33 28.66 -27.66 29.32 -28 30 C-29.98 30 -31.96 30 -34 30 C-34.495 30.99 -34.495 30.99 -35 32 C-36.03125 31.9175 -37.0625 31.835 -38.125 31.75 C-45.04892343 31.7126407 -52.82135859 33.91067929 -59 37 C-60.99760305 37.34740923 -62.99787771 37.67966043 -65 38 C-65.721875 38.20625 -66.44375 38.4125 -67.1875 38.625 C-69 39 -69 39 -72 38 C-72 37.34 -72 36.68 -72 36 C-68.0186217 34.6728739 -64.14954773 34.93084087 -60 35 C-60 30.71 -60 26.42 -60 22 C-63.63 22.66 -67.26 23.32 -71 24 C-70.67 19.38 -70.34 14.76 -70 10 C-68.93523437 9.73960937 -67.87046875 9.47921875 -66.7734375 9.2109375 C-62.15133741 8.05591995 -57.55983953 6.79672401 -52.96533203 5.53710938 C-47.31805101 3.99506567 -41.66101989 2.49073524 -36 1 C-35.08605469 0.75862305 -34.17210937 0.51724609 -33.23046875 0.26855469 C-21.90897082 -2.66746363 -11.22272288 -4.67613453 0 0 Z " fill="#3E70A2" transform="translate(273,148)"/>
<path d="M0 0 C1.32 0 2.64 0 4 0 C4.66 1.65 5.32 3.3 6 5 C5.34 5 4.68 5 4 5 C4.24556641 5.81210938 4.24556641 5.81210938 4.49609375 6.640625 C5.08590587 9.40222593 5.09609308 11.92818139 5.0625 14.75 C5.05347656 15.73484375 5.04445312 16.7196875 5.03515625 17.734375 C5.02355469 18.48203125 5.01195312 19.2296875 5 20 C6.25103516 20.09087891 6.25103516 20.09087891 7.52734375 20.18359375 C14.03706466 20.66828087 20.51769975 21.23091353 27 22 C27.495 24.475 27.495 24.475 28 27 C24.99707398 27.84457294 22.89147095 27.9841948 19.78125 27.53125 C13.06414925 26.62164261 6.26402603 26.89540355 -0.5 26.9375 C-1.90885258 26.94252467 -3.31770689 26.94708587 -4.7265625 26.95117188 C-8.15108638 26.9628997 -11.57552047 26.97931309 -15 27 C-14.67 27.66 -14.34 28.32 -14 29 C-11.97536745 29.65213292 -11.97536745 29.65213292 -10 30 C-9.86489747 32.91821463 -9.7658695 35.83017652 -9.6875 38.75 C-9.64560547 39.575 -9.60371094 40.4 -9.56054688 41.25 C-9.51318497 43.59915059 -9.52779061 45.69667691 -10 48 C-12.46875 50.25 -12.46875 50.25 -15 52 C-15.80732404 54.56270919 -15.80732404 54.56270919 -15.8125 57.25 C-15.86019531 58.14203125 -15.90789062 59.0340625 -15.95703125 59.953125 C-15.97830078 60.96632813 -15.97830078 60.96632813 -16 62 C-15.41863281 61.69320312 -14.83726562 61.38640625 -14.23828125 61.0703125 C-8.60166823 58.37496875 -3.13623812 57.74432341 3 58 C3 62.29 3 66.58 3 71 C-2.94 71.495 -2.94 71.495 -9 72 C-9 72.66 -9 73.32 -9 74 C-14.445 74.99 -14.445 74.99 -20 76 C-15.38 75.67 -10.76 75.34 -6 75 C-6 75.99 -6 76.98 -6 78 C-7.65 77.67 -9.3 77.34 -11 77 C-11.66 78.32 -12.32 79.64 -13 81 C-13.66 80.34 -14.32 79.68 -15 79 C-18.00707124 78.53314574 -18.00707124 78.53314574 -21.5390625 78.3671875 C-23.49199219 78.24150391 -23.49199219 78.24150391 -25.484375 78.11328125 C-26.86457183 78.03365451 -28.24478034 77.95423004 -29.625 77.875 C-31.01307393 77.78860938 -32.40109594 77.70138012 -33.7890625 77.61328125 C-37.19228625 77.40057977 -40.59581022 77.19652924 -44 77 C-43.34 75.02 -42.68 73.04 -42 71 C-39.36 71 -36.72 71 -34 71 C-34 68.03 -34 65.06 -34 62 C-31.525 61.505 -31.525 61.505 -29 61 C-29 55.39 -29 49.78 -29 44 C-26.69 43.34 -24.38 42.68 -22 42 C-22 39.69 -22 37.38 -22 35 C-23.98 34.01 -25.96 33.02 -28 32 C-26.74772034 26.99088137 -25.16160983 24.98782244 -21 22 C-20.67 21.34 -20.34 20.68 -20 20 C-13.73 20 -7.46 20 -1 20 C-1 17.7725 -1 15.545 -1 13.25 C-1 2 -1 2 0 0 Z " fill="#1C345F" transform="translate(210,112)"/>
<path d="M0 0 C0.98226562 -0.00257813 1.96453125 -0.00515625 2.9765625 -0.0078125 C5.375 0.125 5.375 0.125 6.375 1.125 C6.51757189 4.46118231 6.41728157 7.78475606 6.375 11.125 C11.655 10.135 16.935 9.145 22.375 8.125 C22.375 12.085 22.375 16.045 22.375 20.125 C20.725 20.455 19.075 20.785 17.375 21.125 C16.35073813 22.10013467 15.34961757 23.10024609 14.375 24.125 C12.41381836 24.90869141 12.41381836 24.90869141 10.21484375 25.4765625 C9.0247168 25.79367188 9.0247168 25.79367188 7.81054688 26.1171875 C6.98619141 26.32601562 6.16183594 26.53484375 5.3125 26.75 C3.67535936 27.17807724 2.03861992 27.6076927 0.40234375 28.0390625 C-0.68445679 28.3167749 -0.68445679 28.3167749 -1.79321289 28.60009766 C-3.69920284 29.08563168 -3.69920284 29.08563168 -5.625 30.125 C-7.62260305 30.47240923 -9.62287771 30.80466043 -11.625 31.125 C-12.346875 31.33125 -13.06875 31.5375 -13.8125 31.75 C-15.625 32.125 -15.625 32.125 -18.625 31.125 C-18.625 30.465 -18.625 29.805 -18.625 29.125 C-14.6436217 27.7978739 -10.77454773 28.05584087 -6.625 28.125 C-6.625 23.835 -6.625 19.545 -6.625 15.125 C-10.255 15.785 -13.885 16.445 -17.625 17.125 C-17.295 12.505 -16.965 7.885 -16.625 3.125 C-14.63932292 2.63671875 -12.65364583 2.1484375 -10.66796875 1.66015625 C-6.87795254 0.66736042 -3.95412606 -0.01043305 0 0 Z " fill="#F28232" transform="translate(219.625,154.875)"/>
<path d="M0 0 C1.32 0 2.64 0 4 0 C4.66 1.65 5.32 3.3 6 5 C5.34 5 4.68 5 4 5 C4.24556641 5.81210938 4.24556641 5.81210938 4.49609375 6.640625 C5.08590587 9.40222593 5.09609308 11.92818139 5.0625 14.75 C5.05347656 15.73484375 5.04445312 16.7196875 5.03515625 17.734375 C5.02355469 18.48203125 5.01195312 19.2296875 5 20 C6.25103516 20.09087891 6.25103516 20.09087891 7.52734375 20.18359375 C14.03706466 20.66828087 20.51769975 21.23091353 27 22 C27.495 24.475 27.495 24.475 28 27 C24.99707398 27.84457294 22.89147095 27.9841948 19.78125 27.53125 C13.06414925 26.62164261 6.26402603 26.89540355 -0.5 26.9375 C-1.90885258 26.94252467 -3.31770689 26.94708587 -4.7265625 26.95117188 C-8.15108638 26.9628997 -11.57552047 26.97931309 -15 27 C-14.67 27.66 -14.34 28.32 -14 29 C-12.68 29.33 -11.36 29.66 -10 30 C-10 35.94 -10 41.88 -10 48 C-12.97 48.495 -12.97 48.495 -16 49 C-16 47.68 -16 46.36 -16 45 C-17.65 45.99 -19.3 46.98 -21 48 C-22.65 46.35 -24.3 44.7 -26 43 C-24.02 42.505 -24.02 42.505 -22 42 C-22 39.69 -22 37.38 -22 35 C-23.98 34.01 -25.96 33.02 -28 32 C-26.74772034 26.99088137 -25.16160983 24.98782244 -21 22 C-20.67 21.34 -20.34 20.68 -20 20 C-13.73 20 -7.46 20 -1 20 C-1 17.7725 -1 15.545 -1 13.25 C-1 2 -1 2 0 0 Z " fill="#21375F" transform="translate(210,112)"/>
<path d="M0 0 C0.99 0.99 0.99 0.99 2 2 C1.625 4.125 1.625 4.125 1 6 C10.18433477 7.66850093 10.18433477 7.66850093 19 6 C34.03924587 5.29936341 48.56066411 6.4970886 63 11 C63 11.33 63 11.66 63 12 C60.22909271 12.02792628 57.45848683 12.04726284 54.6875 12.0625 C53.56698242 12.07506836 53.56698242 12.07506836 52.42382812 12.08789062 C46.58286694 12.11153824 40.78197958 11.84184386 34.953125 11.5078125 C25.65104996 10.98525613 16.3781203 10.80269421 7.0625 10.8125 C6.25281769 10.81210724 5.44313538 10.81171448 4.60891724 10.81130981 C-20.93956348 10.82582442 -46.52895727 12.02885275 -72 14 C-71.67 13.01 -71.34 12.02 -71 11 C-52.53560134 7.41763989 -34.05215523 3.96518343 -15.4375 1.25 C-14.57511719 1.12230225 -13.71273437 0.99460449 -12.82421875 0.86303711 C-4.29835217 -0.34439802 -4.29835217 -0.34439802 0 0 Z M-4 6 C-4.99 6.99 -5.98 7.98 -7 9 C-5.35 8.67 -3.7 8.34 -2 8 C-2.66 7.34 -3.32 6.68 -4 6 Z " fill="#293C63" transform="translate(120,214)"/>
<path d="M0 0 C2 2 2 2 2 6 C1.34 6 0.68 6 0 6 C0.495 6.433125 0.99 6.86625 1.5 7.3125 C3 9 3 9 3 12 C4.41433206 12.2236337 5.83167618 12.42826476 7.25 12.625 C8.03890625 12.74101562 8.8278125 12.85703125 9.640625 12.9765625 C12.39038467 13.00387799 13.58883593 12.2599692 16 11 C21.24191629 9.82471199 26.33935994 9.9034186 31.67578125 9.97265625 C33.57486795 9.98530518 35.47395659 9.99766594 37.37304688 10.00976562 C40.34177817 10.03452344 43.31040642 10.0624764 46.27905273 10.09594727 C49.16130178 10.12636741 52.04342174 10.14399091 54.92578125 10.16015625 C55.80107986 10.17361588 56.67637848 10.1870755 57.57820129 10.20094299 C62.70401231 10.22153992 67.18656008 9.67623829 72.12297058 8.26097107 C74 8 74 8 76.6875 9.75 C77.450625 10.4925 78.21375 11.235 79 12 C84.00191709 14.27359868 88.61901754 14.2152393 94 14 C94.495 14.99 94.495 14.99 95 16 C97.34386809 16.91031272 97.34386809 16.91031272 100.0625 17.625 C100.98160156 17.88539063 101.90070313 18.14578125 102.84765625 18.4140625 C103.55792969 18.60742188 104.26820313 18.80078125 105 19 C101.66688525 20.7824918 98.75519057 21.48792856 95 22 C93 19 93 19 92 17 C89.69 17 87.38 17 85 17 C85.495 18.485 85.495 18.485 86 20 C85.2265625 19.4740625 85.2265625 19.4740625 84.4375 18.9375 C81.05993333 17.6384359 78.49531943 18.32782319 75 19 C75 18.34 75 17.68 75 17 C50.25 17 25.5 17 0 17 C0 16.34 0 15.68 0 15 C-2.31 15.33 -4.62 15.66 -7 16 C-5.56835889 12.34061828 -4.01065704 8.76011932 -2.375 5.1875 C-1.92898437 4.21167969 -1.48296875 3.23585937 -1.0234375 2.23046875 C-0.51683594 1.12638672 -0.51683594 1.12638672 0 0 Z M22 11 C22 11.33 22 11.66 22 12 C23.98 12 25.96 12 28 12 C28 11.67 28 11.34 28 11 C26.02 11 24.04 11 22 11 Z M65 11 C65 11.33 65 11.66 65 12 C67.97 12 70.94 12 74 12 C74 11.67 74 11.34 74 11 C71.03 11 68.06 11 65 11 Z " fill="#192E55" transform="translate(178,190)"/>
<path d="M0 0 C1.58941406 0.15275391 1.58941406 0.15275391 3.2109375 0.30859375 C4.00757813 0.39238281 4.80421875 0.47617188 5.625 0.5625 C5.625 0.8925 5.625 1.2225 5.625 1.5625 C2.655 1.5625 -0.315 1.5625 -3.375 1.5625 C-3.705 5.1925 -4.035 8.8225 -4.375 12.5625 C-6.3320868 13.23281719 -8.29071113 13.89864683 -10.25 14.5625 C-11.34054688 14.93375 -12.43109375 15.305 -13.5546875 15.6875 C-16.375 16.5625 -16.375 16.5625 -18.375 16.5625 C-18.32859375 17.53832031 -18.2821875 18.51414063 -18.234375 19.51953125 C-18.18023437 21.42798828 -18.18023437 21.42798828 -18.125 23.375 C-18.07859375 24.63957031 -18.0321875 25.90414062 -17.984375 27.20703125 C-18.375 30.5625 -18.375 30.5625 -20.21875 32.46875 C-22.60502378 33.67917873 -24.73225101 34.19545153 -27.375 34.5625 C-26.1875 32.0625 -26.1875 32.0625 -24.375 29.5625 C-22.725 29.5625 -21.075 29.5625 -19.375 29.5625 C-19.705 25.9325 -20.035 22.3025 -20.375 18.5625 C-21.550625 18.8925 -22.72625 19.2225 -23.9375 19.5625 C-27.8761676 20.5594533 -31.32639129 20.73119203 -35.375 20.5625 C-35.705 17.2625 -36.035 13.9625 -36.375 10.5625 C-39.015 10.2325 -41.655 9.9025 -44.375 9.5625 C-44.375 9.2325 -44.375 8.9025 -44.375 8.5625 C-39.92833913 7.43842141 -35.48089512 6.31751382 -31.03271484 5.19946289 C-29.52143081 4.81913655 -28.01035957 4.43796357 -26.49951172 4.0559082 C-24.32054942 3.50506309 -22.14082532 2.95732577 -19.9609375 2.41015625 C-19.29194427 2.2403273 -18.62295105 2.07049835 -17.9336853 1.89552307 C-11.74346582 0.34760304 -6.37074707 -0.63707471 0 0 Z " fill="#D39864" transform="translate(261.375,145.4375)"/>
<path d="M0 0 C0.66 0.66 1.32 1.32 2 2 C1.625 4.125 1.625 4.125 1 6 C10.18433477 7.66850093 10.18433477 7.66850093 19 6 C34.03924587 5.29936341 48.56066411 6.4970886 63 11 C63 11.33 63 11.66 63 12 C53.83975082 12.09232054 44.70885072 12.12248066 35.5625 11.5625 C25.65291014 10.95650996 15.73583681 10.7019276 5.8125 10.4375 C4.56885178 10.40428146 4.56885178 10.40428146 3.30007935 10.37039185 C-1.46653498 10.24375365 -6.23322713 10.12051592 -11 10 C-11.54372951 6.94152152 -12 4.11227195 -12 1 C-7.94638511 0.22788288 -4.12876411 -0.28150664 0 0 Z M-4 6 C-4.99 6.99 -5.98 7.98 -7 9 C-5.35 8.67 -3.7 8.34 -2 8 C-2.66 7.34 -3.32 6.68 -4 6 Z " fill="#13294F" transform="translate(120,214)"/>
<path d="M0 0 C1.4606285 2.64738916 2 3.89448334 2 7 C-5.26 7 -12.52 7 -20 7 C-20 7.66 -20 8.32 -20 9 C-19.34 9.33 -18.68 9.66 -18 10 C-23.83174402 12.91587201 -32.7570347 10.80554391 -39 10 C-38.505 9.236875 -38.01 8.47375 -37.5 7.6875 C-35.75631692 5.07636249 -35.75631692 5.07636249 -36 2 C-23.93629525 0.51686616 -12.15448493 -0.28012897 0 0 Z M-41 9 C-40.34 9.66 -39.68 10.32 -39 11 C-40.65 11.33 -42.3 11.66 -44 12 C-43.01 11.01 -42.02 10.02 -41 9 Z " fill="#122B58" transform="translate(157,211)"/>
<path d="M0 0 C1.32 0 2.64 0 4 0 C4.66 1.65 5.32 3.3 6 5 C5.34 5 4.68 5 4 5 C4.24556641 5.81210938 4.24556641 5.81210938 4.49609375 6.640625 C5.08590587 9.40222593 5.09609308 11.92818139 5.0625 14.75 C5.05347656 15.73484375 5.04445312 16.7196875 5.03515625 17.734375 C5.02355469 18.48203125 5.01195312 19.2296875 5 20 C6.98 20 8.96 20 11 20 C11 20.66 11 21.32 11 22 C12.65 22 14.3 22 16 22 C15.01 22.495 15.01 22.495 14 23 C14 23.66 14 24.32 14 25 C-1.84 25.495 -1.84 25.495 -18 26 C-17.01 24.68 -16.02 23.36 -15 22 C-14.34 22 -13.68 22 -13 22 C-12.34 21.34 -11.68 20.68 -11 20 C-8.6171875 19.8046875 -8.6171875 19.8046875 -5.875 19.875 C-4.50988281 19.90207031 -4.50988281 19.90207031 -3.1171875 19.9296875 C-2.41851562 19.95289063 -1.71984375 19.97609375 -1 20 C-1 19.03578125 -1 18.0715625 -1 17.078125 C-1 2 -1 2 0 0 Z " fill="#152C58" transform="translate(210,112)"/>
<path d="M0 0 C0.33 0 0.66 0 1 0 C1 3.3 1 6.6 1 10 C6.28 9.01 11.56 8.02 17 7 C17 10.96 17 14.92 17 19 C15.35 19.33 13.7 19.66 12 20 C11.26330078 20.75216797 11.26330078 20.75216797 10.51171875 21.51953125 C8.39306702 23.59438657 6.72488216 23.49838428 3.8125 23.6875 C2.91144531 23.75324219 2.01039063 23.81898438 1.08203125 23.88671875 C0.39496094 23.92410156 -0.29210937 23.96148437 -1 24 C-0.34 23.67 0.32 23.34 1 23 C1 19.7 1 16.4 1 13 C0.01 13 -0.98 13 -2 13 C-2.33 11.35 -2.66 9.7 -3 8 C-2.34 8 -1.68 8 -1 8 C-0.67 5.36 -0.34 2.72 0 0 Z " fill="#F28431" transform="translate(225,156)"/>
<path d="M0 0 C1.65 0.33 3.3 0.66 5 1 C5 2.32 5 3.64 5 5 C5.66 4.67 6.32 4.34 7 4 C8.99960012 3.960008 11.00047242 3.95653201 13 4 C13 4.33 13 4.66 13 5 C11.35 5 9.7 5 8 5 C8 8.96 8 12.92 8 17 C8.66 17.33 9.32 17.66 10 18 C8.68 18 7.36 18 6 18 C6 18.66 6 19.32 6 20 C2.51452282 22.11618257 2.51452282 22.11618257 0.0625 21.5625 C-0.618125 21.376875 -1.29875 21.19125 -2 21 C-3.65 21.33 -5.3 21.66 -7 22 C-7 17.71 -7 13.42 -7 9 C-3.7 7.68 -0.4 6.36 3 5 C3 4.34 3 3.68 3 3 C1.68 2.67 0.36 2.34 -1 2 C-0.67 1.34 -0.34 0.68 0 0 Z " fill="#F48631" transform="translate(268,147)"/>
<path d="M0 0 C0.99 0.66 1.98 1.32 3 2 C3 1.34 3 0.68 3 0 C5.97 0 8.94 0 12 0 C12.33 1.65 12.66 3.3 13 5 C14.2065625 4.4740625 14.2065625 4.4740625 15.4375 3.9375 C19.90346108 2.76224708 23.49837555 3.25973287 28 4 C28 4.99 28 5.98 28 7 C28.99 7.33 29.98 7.66 31 8 C27.1442643 11.8557357 20.26086203 10.41439617 15.0625 10.4375 C13.11053711 10.48680664 13.11053711 10.48680664 11.11914062 10.53710938 C9.25225586 10.54774414 9.25225586 10.54774414 7.34765625 10.55859375 C6.20304932 10.57204834 5.05844238 10.58550293 3.87915039 10.59936523 C1 10 1 10 -0.94750977 7.64086914 C-2 5 -2 5 -1.1875 2.1875 C-0.795625 1.465625 -0.40375 0.74375 0 0 Z " fill="#112851" transform="translate(260,207)"/>
<path d="M0 0 C5.28 0 10.56 0 16 0 C16.66 1.98 17.32 3.96 18 6 C18.33 5.34 18.66 4.68 19 4 C19 4.66 19 5.32 19 6 C19.66 6.33 20.32 6.66 21 7 C20.34 7.66 19.68 8.32 19 9 C19.66 9.66 20.32 10.32 21 11 C14.2168636 12.42002108 7.93302093 13.22731216 1 13 C1.33 11.68 1.66 10.36 2 9 C1.01 8.67 0.02 8.34 -1 8 C-1 7.34 -1 6.68 -1 6 C-0.34 6 0.32 6 1 6 C0.67 4.02 0.34 2.04 0 0 Z " fill="#162D57" transform="translate(179,190)"/>
<path d="M0 0 C0 4.29 0 8.58 0 13 C-2.31146089 13.36088615 -4.62420829 13.71354191 -6.9375 14.0625 C-8.22527344 14.25972656 -9.51304687 14.45695313 -10.83984375 14.66015625 C-12.40412109 14.82837891 -12.40412109 14.82837891 -14 15 C-15 14 -15 14 -15.0625 11.4375 C-15.041875 10.633125 -15.02125 9.82875 -15 9 C-15.66 9 -16.32 9 -17 9 C-17.125 6.625 -17.125 6.625 -17 4 C-12.64760099 -0.35239901 -5.82763193 -0.242818 0 0 Z " fill="#3277B1" transform="translate(213,170)"/>
<path d="M0 0 C0.13605482 8.39004715 -0.24524649 16.64380043 -1 25 C0.32 25.33 1.64 25.66 3 26 C-0.28230722 27.89363878 -3.27024643 28.4560776 -7 29 C-7.721875 29.20625 -8.44375 29.4125 -9.1875 29.625 C-11 30 -11 30 -14 29 C-14 28.34 -14 27.68 -14 27 C-10.0186217 25.6728739 -6.14954773 25.93084087 -2 26 C-2 21.71 -2 17.42 -2 13 C-5.63 13.66 -9.26 14.32 -13 15 C-12.67 10.38 -12.34 5.76 -12 1 C-7.70835679 0.28472613 -4.25993627 -0.10142705 0 0 Z " fill="#BB5F58" transform="translate(215,157)"/>
<path d="M0 0 C0 4.29 0 8.58 0 13 C-5.17598311 14.8540835 -8.43756187 16 -14 16 C-14 12.04 -14 8.08 -14 4 C-13.34 4 -12.68 4 -12 4 C-12 3.34 -12 2.68 -12 2 C-10.7625 1.67 -9.525 1.34 -8.25 1 C-7.55390625 0.814375 -6.8578125 0.62875 -6.140625 0.4375 C-4 0 -4 0 0 0 Z " fill="#407EB0" transform="translate(241,149)"/>
<path d="M0 0 C2.8153125 -0.0309375 2.8153125 -0.0309375 5.6875 -0.0625 C6.74324219 -0.07410156 7.79898437 -0.08570313 8.88671875 -0.09765625 C11.72410262 -0.00865425 14.2438919 0.35060162 17 1 C17 3.97 17 6.94 17 10 C14.06751344 10.73312164 11.47325956 11.24175453 8.5 11.5625 C7.7471875 11.64628906 6.994375 11.73007813 6.21875 11.81640625 C4.15199362 11.98742306 2.07381983 12 0 12 C0 8.04 0 4.08 0 0 Z " fill="#295992" transform="translate(276,152)"/>
<path d="M0 0 C0.33 0 0.66 0 1 0 C1.077475 4.57102507 0.93777474 8.5187996 0 13 C5.47716127 12.90551321 10.953929 12.79922481 16.43066406 12.68261719 C18.28867546 12.64464605 20.14675242 12.60974154 22.00488281 12.578125 C39.55295536 12.93693403 39.55295536 12.93693403 56 8 C56 7.01 56 6.02 56 5 C56.66 5.33 57.32 5.66 58 6 C57.42983875 7.27679728 56.84320153 8.54624288 56.25 9.8125 C55.92515625 10.52019531 55.6003125 11.22789062 55.265625 11.95703125 C53.709372 14.469131 52.62322184 15.60094835 50 17 C47.3270555 17.21326685 44.9073788 17.28545631 42.25 17.1875 C41.55261719 17.17396484 40.85523438 17.16042969 40.13671875 17.14648438 C38.42414459 17.1112945 36.71197059 17.05749155 35 17 C35 16.67 35 16.34 35 16 C38.3 16 41.6 16 45 16 C45 15.34 45 14.68 45 14 C44.19095215 14.06566162 43.3819043 14.13132324 42.54833984 14.19897461 C32.9083768 14.93920305 23.28763443 15.30212325 13.625 15.5625 C12.09895054 15.6058463 10.57290878 15.64946469 9.046875 15.69335938 C5.36466642 15.79869587 1.68236872 15.90039862 -2 16 C-3.26977059 12.19068824 -2.52074507 10.18381007 -1.5625 6.3125 C-1.27503906 5.13300781 -0.98757812 3.95351562 -0.69140625 2.73828125 C-0.46324219 1.83464844 -0.23507813 0.93101562 0 0 Z M46 14 C46 14.33 46 14.66 46 15 C47.65 15 49.3 15 51 15 C51 14.67 51 14.34 51 14 C49.35 14 47.7 14 46 14 Z " fill="#C68C6D" transform="translate(114,194)"/>
<path d="M0 0 C0.33 0 0.66 0 1 0 C1 5.94 1 11.88 1 18 C0.01 18 -0.98 18 -2 18 C-3.3271261 21.9813783 -3.06915913 25.85045227 -3 30 C-1.68 30.33 -0.36 30.66 1 31 C1 31.66 1 32.32 1 33 C2.16917969 32.855625 3.33835938 32.71125 4.54296875 32.5625 C6.09112699 32.37484446 7.63930513 32.1873531 9.1875 32 C10.34088867 31.85691406 10.34088867 31.85691406 11.51757812 31.7109375 C15.36928811 31.24807106 19.11170851 30.87532532 23 31 C23 31.99 23 32.98 23 34 C21.35 33.67 19.7 33.34 18 33 C17.34 34.32 16.68 35.64 16 37 C15.34 36.34 14.68 35.68 14 35 C10.99292876 34.53314574 10.99292876 34.53314574 7.4609375 34.3671875 C6.15898437 34.28339844 4.85703125 34.19960937 3.515625 34.11328125 C2.13542817 34.03365451 0.75521966 33.95423004 -0.625 33.875 C-2.01307393 33.78860938 -3.40109594 33.70138012 -4.7890625 33.61328125 C-8.19228625 33.40057977 -11.59581022 33.19652924 -15 33 C-14.34 31.02 -13.68 29.04 -13 27 C-10.36 27 -7.72 27 -5 27 C-5 24.03 -5 21.06 -5 18 C-3.35 17.67 -1.7 17.34 0 17 C0 11.39 0 5.78 0 0 Z " fill="#2D4162" transform="translate(181,156)"/>
<path d="M0 0 C0 2.97 0 5.94 0 9 C-5.17598311 10.8540835 -8.43756187 12 -14 12 C-14.33 8.37 -14.66 4.74 -15 1 C-12.8750734 0.83240016 -10.75005624 0.66594799 -8.625 0.5 C-7.44164062 0.4071875 -6.25828125 0.314375 -5.0390625 0.21875 C-3.36213157 0.09804546 -1.68126944 0 0 0 Z " fill="#EE8D3A" transform="translate(256,148)"/>
<path d="M0 0 C19.8 0 39.6 0 60 0 C59.10825333 3.56698669 57.97696469 6.4342299 56.4375 9.75 C55.98246094 10.73484375 55.52742188 11.7196875 55.05859375 12.734375 C54.53458984 13.85585937 54.53458984 13.85585937 54 15 C53.67 15 53.34 15 53 15 C53 13.02 53 11.04 53 9 C53.66 9 54.32 9 55 9 C55.144375 8.4225 55.28875 7.845 55.4375 7.25 C55.95833333 5.16666667 56.47916667 3.08333333 57 1 C38.85 1 20.7 1 2 1 C0.53699044 8.25191175 0.53699044 8.25191175 -0.5625 15.5625 C-1 19 -1 19 -2 20 C-2.23192865 21.51469448 -2.41215238 23.03754562 -2.5625 24.5625 C-2.64628906 25.38878906 -2.73007813 26.21507812 -2.81640625 27.06640625 C-2.87699219 27.70449219 -2.93757813 28.34257812 -3 29 C-7.76804337 21.24969729 -1.58887297 7.41474054 0 0 Z " fill="#DB9461" transform="translate(129,123)"/>
<path d="M0 0 C0.5625 1.9375 0.5625 1.9375 1 4 C-0.54387659 5.54387659 -2.04958768 5.1983429 -4.19921875 5.28125 C-5.50983276 5.33647827 -5.50983276 5.33647827 -6.84692383 5.39282227 C-8.25300903 5.44587524 -8.25300903 5.44587524 -9.6875 5.5 C-11.60161855 5.5807129 -13.51568175 5.66274896 -15.4296875 5.74609375 C-16.84652832 5.80772705 -16.84652832 5.80772705 -18.29199219 5.87060547 C-23.86896802 6.13708556 -29.43423134 6.56035105 -35 7 C-34.67 6.01 -34.34 5.02 -34 4 C-11.61149919 -0.77553612 -11.61149919 -0.77553612 0 0 Z " fill="#2C4568" transform="translate(83,221)"/>
<path d="M0 0 C8.4258956 1.83756234 16.13348239 4.47122526 24 8 C24 8.66 24 9.32 24 10 C19.17624201 10.14043852 15.0602316 9.667707 10.375 8.5625 C-2.14985194 5.87703911 -15.23964515 6.23414682 -28 6 C-28 5.67 -28 5.34 -28 5 C-27.12674072 4.97494385 -26.25348145 4.9498877 -25.35375977 4.92407227 C-22.12397448 4.82912291 -18.89435846 4.72987971 -15.66479492 4.62768555 C-14.26510801 4.58428566 -12.86536641 4.54261436 -11.46557617 4.50268555 C-9.45738505 4.44510555 -7.44938851 4.38086 -5.44140625 4.31640625 C-4.23170166 4.27974854 -3.02199707 4.24309082 -1.77563477 4.20532227 C0.90705456 4.31061734 0.90705456 4.31061734 2 3 C1.34 2.67 0.68 2.34 0 2 C0 1.34 0 0.68 0 0 Z " fill="#445476" transform="translate(288,212)"/>
<path d="M0 0 C1.41891037 0.03541649 1.41891037 0.03541649 2.8664856 0.07154846 C5.87209545 0.14779806 8.8774221 0.23198787 11.8828125 0.31640625 C13.92706972 0.36966572 15.97134054 0.42240583 18.015625 0.47460938 C23.01319837 0.60336054 28.010533 0.73923074 33.0078125 0.87890625 C33.0078125 1.20890625 33.0078125 1.53890625 33.0078125 1.87890625 C32.03956543 1.90863525 32.03956543 1.90863525 31.05175781 1.93896484 C28.12004029 2.03436953 25.18902018 2.14398596 22.2578125 2.25390625 C21.24203125 2.28484375 20.22625 2.31578125 19.1796875 2.34765625 C18.2 2.38632813 17.2203125 2.425 16.2109375 2.46484375 C14.85983887 2.5119751 14.85983887 2.5119751 13.48144531 2.56005859 C11.01529842 2.73222833 11.01529842 2.73222833 9.07617188 3.89257812 C6.21856507 5.2552707 3.86521556 5.10397609 0.7109375 5.07421875 C-1.09697266 5.06455078 -1.09697266 5.06455078 -2.94140625 5.0546875 C-4.82279297 5.02955078 -4.82279297 5.02955078 -6.7421875 5.00390625 C-8.01191406 4.99488281 -9.28164062 4.98585937 -10.58984375 4.9765625 C-13.72414843 4.9529963 -16.85807291 4.92009457 -19.9921875 4.87890625 C-19.9921875 4.21890625 -19.9921875 3.55890625 -19.9921875 2.87890625 C-13.733504 -0.73187269 -6.97910485 -0.20743135 0 0 Z M-9.9921875 0.87890625 C-9.9921875 1.20890625 -9.9921875 1.53890625 -9.9921875 1.87890625 C-8.0121875 1.87890625 -6.0321875 1.87890625 -3.9921875 1.87890625 C-3.9921875 1.54890625 -3.9921875 1.21890625 -3.9921875 0.87890625 C-5.9721875 0.87890625 -7.9521875 0.87890625 -9.9921875 0.87890625 Z " fill="#4E6281" transform="translate(209.9921875,200.12109375)"/>
<path d="M0 0 C1.65 0 3.3 0 5 0 C4.67 1.65 4.34 3.3 4 5 C4.99 4.34 5.98 3.68 7 3 C9.6875 2.875 9.6875 2.875 12 3 C11.979375 4.11375 11.95875 5.2275 11.9375 6.375 C11.73619282 9.83215921 11.73619282 9.83215921 13 12 C10.00519083 12.8723412 7.36424089 13.10829766 4.25 13.0625 C2.14625 13.0315625 2.14625 13.0315625 0 13 C0 8.71 0 4.42 0 0 Z " fill="#ED8B42" transform="translate(214,169)"/>
<path d="M0 0 C1.4606285 2.64738916 2 3.89448334 2 7 C-1.43742918 7.05802698 -4.87473253 7.09360486 -8.3125 7.125 C-9.28896484 7.14175781 -10.26542969 7.15851563 -11.27148438 7.17578125 C-12.20927734 7.18222656 -13.14707031 7.18867188 -14.11328125 7.1953125 C-14.97735596 7.20578613 -15.84143066 7.21625977 -16.73168945 7.22705078 C-19 7 -19 7 -22 5 C-21.01 4.01 -20.02 3.02 -19 2 C-18.34 2.33 -17.68 2.66 -17 3 C-16.34 3 -15.68 3 -15 3 C-14.67 2.34 -14.34 1.68 -14 1 C-9.31604754 -0.14242743 -4.78644729 -0.08252495 0 0 Z " fill="#132954" transform="translate(157,211)"/>
<path d="M0 0 C2 2 2 2 2 4 C1.67 4.66 1.34 5.32 1 6 C-0.98 6.66 -2.96 7.32 -5 8 C8.86 8.495 8.86 8.495 23 9 C23 9.33 23 9.66 23 10 C11.78 10 0.56 10 -11 10 C-12 4 -12 4 -12 1 C-7.94638511 0.22788288 -4.12876411 -0.28150664 0 0 Z " fill="#495D80" transform="translate(120,214)"/>
<path d="M0 0 C1.65 0.33 3.3 0.66 5 1 C5 2.32 5 3.64 5 5 C5.66 4.67 6.32 4.34 7 4 C8.99960012 3.960008 11.00047242 3.95653201 13 4 C13 4.33 13 4.66 13 5 C11.35 5 9.7 5 8 5 C8 8.96 8 12.92 8 17 C8.66 17.33 9.32 17.66 10 18 C8.68 18 7.36 18 6 18 C6 18.66 6 19.32 6 20 C2.51452282 22.11618257 2.51452282 22.11618257 0.0625 21.5625 C-0.618125 21.376875 -1.29875 21.19125 -2 21 C-3.65 21.33 -5.3 21.66 -7 22 C-7 17.71 -7 13.42 -7 9 C-3.7 7.68 -0.4 6.36 3 5 C3 4.34 3 3.68 3 3 C1.68 2.67 0.36 2.34 -1 2 C-0.67 1.34 -0.34 0.68 0 0 Z M-1.6875 9 C-3.110625 9.33 -4.53375 9.66 -6 10 C-6 13.3 -6 16.6 -6 20 C-2.7 20 0.6 20 4 20 C3.67 19.01 3.34 18.02 3 17 C3.99 17 4.98 17 6 17 C6 14.03 6 11.06 6 8 C3.20215289 8 1.0209322 8.37195775 -1.6875 9 Z " fill="#AF8972" transform="translate(268,147)"/>
<path d="M0 0 C1.31291016 -0.02513672 1.31291016 -0.02513672 2.65234375 -0.05078125 C5.51999186 0.38145744 6.1467444 1.24392059 8.0625 3.3125 C9.0525 3.3125 10.0425 3.3125 11.0625 3.3125 C11.0625 2.6525 11.0625 1.9925 11.0625 1.3125 C16.5075 1.8075 16.5075 1.8075 22.0625 2.3125 C21.4025 2.6425 20.7425 2.9725 20.0625 3.3125 C20.0625 3.9725 20.0625 4.6325 20.0625 5.3125 C4.2225 5.8075 4.2225 5.8075 -11.9375 6.3125 C-10.9475 4.9925 -9.9575 3.6725 -8.9375 2.3125 C-8.2775 2.3125 -7.6175 2.3125 -6.9375 2.3125 C-4.42737037 -0.19762963 -3.46944763 0.01528391 0 0 Z " fill="#172C55" transform="translate(203.9375,131.6875)"/>
<path d="M0 0 C8.49609375 0.5859375 8.49609375 0.5859375 11 1 C11.33 1.66 11.66 2.32 12 3 C12.99 3 13.98 3 15 3 C14.67 4.65 14.34 6.3 14 8 C9.34201396 9.20465156 4.76350585 10.28547412 0 11 C0 7.37 0 3.74 0 0 Z " fill="#32426B" transform="translate(257,146)"/>
<path d="M0 0 C5.28 0.33 10.56 0.66 16 1 C16.495 3.475 16.495 3.475 17 6 C14.00958277 6.84105485 11.90838076 6.98652658 8.8125 6.53125 C1.92808754 5.59898581 -5.06680629 5.89580959 -12 5.9375 C-13.45702971 5.94252424 -14.9140611 5.94708551 -16.37109375 5.95117188 C-19.9140977 5.96210612 -23.45703797 5.97932 -27 6 C-27 5.34 -27 4.68 -27 4 C-17.1 4 -7.2 4 3 4 C3 3.34 3 2.68 3 2 C2.01 1.34 1.02 0.68 0 0 Z " fill="#596D8A" transform="translate(221,133)"/>
<path d="M0 0 C2 2 2 2 2 6 C1.34 6 0.68 6 0 6 C0.495 6.433125 0.99 6.86625 1.5 7.3125 C3 9 3 9 3 12 C5.64 12.66 8.28 13.32 11 14 C10.01 14.33 9.02 14.66 8 15 C8 15.66 8 16.32 8 17 C5.36 17 2.72 17 0 17 C0 16.34 0 15.68 0 15 C-2.31 15.33 -4.62 15.66 -7 16 C-5.56835889 12.34061828 -4.01065704 8.76011932 -2.375 5.1875 C-1.92898437 4.21167969 -1.48296875 3.23585937 -1.0234375 2.23046875 C-0.51683594 1.12638672 -0.51683594 1.12638672 0 0 Z " fill="#505E7C" transform="translate(178,190)"/>
<path d="M0 0 C7.54632275 0.03295337 14.71967516 2.30655364 21.9375 4.3125 C21.9375 4.6425 21.9375 4.9725 21.9375 5.3125 C9.22917137 5.44057946 -3.37845119 5.10791627 -16.0625 4.3125 C-16.0625 3.9825 -16.0625 3.6525 -16.0625 3.3125 C-11.4425 3.3125 -6.8225 3.3125 -2.0625 3.3125 C-3.0525 2.6525 -4.0425 1.9925 -5.0625 1.3125 C-3.52381092 -0.22618908 -2.15123391 0.06823613 0 0 Z " fill="#78829A" transform="translate(161.0625,220.6875)"/>
<path d="M0 0 C18.81 0.495 18.81 0.495 38 1 C38.495 1.99 38.495 1.99 39 3 C38.06421005 5.35981813 37.06652192 7.69631264 36 10 C35.67 10 35.34 10 35 10 C35 7.69 35 5.38 35 3 C23.45 3 11.9 3 0 3 C0 2.01 0 1.02 0 0 Z " fill="#E3A071" transform="translate(137,189)"/>
<path d="M0 0 C2 1 2 1 3 2 C3.07179964 3.51928038 3.08392007 5.04167482 3.0625 6.5625 C3.05347656 7.38878906 3.04445312 8.21507812 3.03515625 9.06640625 C3.01775391 10.02353516 3.01775391 10.02353516 3 11 C5.64 11 8.28 11 11 11 C11 15.29 11 19.58 11 24 C12.32 24.33 13.64 24.66 15 25 C11.71769278 26.89363878 8.72975357 27.4560776 5 28 C4.278125 28.20625 3.55625 28.4125 2.8125 28.625 C1 29 1 29 -2 28 C-2 27.34 -2 26.68 -2 26 C1.9813783 24.6728739 5.85045227 24.93084087 10 25 C10 20.71 10 16.42 10 12 C6.37 12.66 2.74 13.32 -1 14 C-0.67 9.38 -0.34 4.76 0 0 Z " fill="#927B7B" transform="translate(203,158)"/>
<path d="M0 0 C2 4 4 8 6 12 C8.64 8.7 11.28 5.4 14 2 C14.66 2.33 15.32 2.66 16 3 C14.6875 5.9375 14.6875 5.9375 13 9 C12.01 9.33 11.02 9.66 10 10 C9.64587656 11.32796291 9.31478446 12.66216607 9 14 C7.6875 15.8125 7.6875 15.8125 6 17 C3.8125 16.6875 3.8125 16.6875 2 16 C2.33 14.68 2.66 13.36 3 12 C2.01 12.33 1.02 12.66 0 13 C0 8.71 0 4.42 0 0 Z " fill="#304465" transform="translate(68,144)"/>
<path d="M0 0 C0.66 0 1.32 0 2 0 C0.92598892 2.91517292 0.22189824 4.77810176 -2 7 C-4.98095703 7.22705078 -4.98095703 7.22705078 -8.7578125 7.1953125 C-9.42086395 7.1924826 -10.08391541 7.18965271 -10.76705933 7.18673706 C-12.88655583 7.17553435 -15.00563104 7.15043051 -17.125 7.125 C-18.56119182 7.11497028 -19.99739025 7.10584441 -21.43359375 7.09765625 C-24.95586628 7.075595 -28.47789203 7.04106494 -32 7 C-32.33 7.66 -32.66 8.32 -33 9 C-32.67 7.68 -32.34 6.36 -32 5 C-22.43 5 -12.86 5 -3 5 C-2.34 3.68 -1.68 2.36 -1 1 C-0.67 0.67 -0.34 0.34 0 0 Z " fill="#F09A77" transform="translate(180,138)"/>
<path d="M0 0 C0.52207031 0.18175781 1.04414063 0.36351562 1.58203125 0.55078125 C7.65749813 2.62559043 13.79305783 4.36415169 20 6 C20 6.66 20 7.32 20 8 C11.42 8 2.84 8 -6 8 C-6 7.67 -6 7.34 -6 7 C-1.71 7 2.58 7 7 7 C7 6.34 7 5.68 7 5 C5.35 5.33 3.7 5.66 2 6 C2 4.68 2 3.36 2 2 C1.34 2 0.68 2 0 2 C0 1.34 0 0.68 0 0 Z " fill="#5A6A85" transform="translate(257,218)"/>
<path d="M0 0 C0.33 0 0.66 0 1 0 C1 3.3 1 6.6 1 10 C1.99 10 2.98 10 4 10 C4 14.62 4 19.24 4 24 C2.35 24 0.7 24 -1 24 C-0.34 23.67 0.32 23.34 1 23 C1 19.7 1 16.4 1 13 C0.01 13 -0.98 13 -2 13 C-2.33 11.35 -2.66 9.7 -3 8 C-2.34 8 -1.68 8 -1 8 C-0.67 5.36 -0.34 2.72 0 0 Z " fill="#C9783D" transform="translate(225,156)"/>
<path d="M0 0 C0.84304687 0.23009766 0.84304687 0.23009766 1.703125 0.46484375 C4.05838878 1.01360419 6.34548104 1.31497599 8.75 1.5625 C9.54921875 1.64628906 10.3484375 1.73007813 11.171875 1.81640625 C12.07679687 1.90728516 12.07679687 1.90728516 13 2 C12.07421875 3.984375 12.07421875 3.984375 10 6 C6.93166378 6.52339018 3.91391602 6.37472825 0.8125 6.25 C-0.03248047 6.23195312 -0.87746094 6.21390625 -1.74804688 6.1953125 C-3.83251573 6.14820586 -5.91640144 6.07646233 -8 6 C-7.34 5.67 -6.68 5.34 -6 5 C-6 4.34 -6 3.68 -6 3 C-4.02 2.67 -2.04 2.34 0 2 C0 1.34 0 0.68 0 0 Z " fill="#122951" transform="translate(93,218)"/>
<path d="M0 0 C0.33 0 0.66 0 1 0 C1.07972012 4.7034873 0.93491183 8.32544083 0 13 C10.23 13.33 20.46 13.66 31 14 C31 14.33 31 14.66 31 15 C14.665 15.495 14.665 15.495 -2 16 C-3.26977059 12.19068824 -2.52074507 10.18381007 -1.5625 6.3125 C-1.27503906 5.13300781 -0.98757812 3.95351562 -0.69140625 2.73828125 C-0.46324219 1.83464844 -0.23507813 0.93101562 0 0 Z " fill="#EAB38E" transform="translate(114,194)"/>
<path d="M0 0 C0 3.96 0 7.92 0 12 C-0.66 11.67 -1.32 11.34 -2 11 C-1.67 9.02 -1.34 7.04 -1 5 C-1.66 5 -2.32 5 -3 5 C-3 4.34 -3 3.68 -3 3 C-5.64 3.33 -8.28 3.66 -11 4 C-11 7.3 -11 10.6 -11 14 C-9.35 13.67 -7.7 13.34 -6 13 C-6 13.66 -6 14.32 -6 15 C-8.31 15.66 -10.62 16.32 -13 17 C-13 12.38 -13 7.76 -13 3 C-1.125 0 -1.125 0 0 0 Z " fill="#E28F48" transform="translate(242,163)"/>
<path d="M0 0 C2.5625 1.3125 2.5625 1.3125 4 3 C4 3.99 4 4.98 4 6 C3.0925 5.835 2.185 5.67 1.25 5.5 C-2.11087503 4.89862854 -2.11087503 4.89862854 -6 5 C-8.33333333 5 -10.66666667 5 -13 5 C-13 4.01 -13 3.02 -13 2 C-8.68635075 -0.46074082 -4.87055526 -0.58982871 0 0 Z " fill="#53627D" transform="translate(243,121)"/>
<path d="M0 0 C0 0.66 0 1.32 0 2 C5.94 2 11.88 2 18 2 C18 2.33 18 2.66 18 3 C17.43716309 3.02505615 16.87432617 3.0501123 16.29443359 3.07592773 C5.18342354 3.57520993 -5.91125223 4.12408211 -17 5 C-16.67 4.01 -16.34 3.02 -16 2 C-14.08404518 1.66259915 -12.16720278 1.33023588 -10.25 1 C-9.18265625 0.814375 -8.1153125 0.62875 -7.015625 0.4375 C-4 0 -4 0 0 0 Z " fill="#67748E" transform="translate(65,223)"/>
<path d="M0 0 C2.97 0.495 2.97 0.495 6 1 C6.495 3.475 6.495 3.475 7 6 C7.99 6.33 8.98 6.66 10 7 C-2.54 6.67 -15.08 6.34 -28 6 C-28 5.67 -28 5.34 -28 5 C-27.12674072 4.97494385 -26.25348145 4.9498877 -25.35375977 4.92407227 C-22.12397448 4.82912291 -18.89435846 4.72987971 -15.66479492 4.62768555 C-14.26510801 4.58428566 -12.86536641 4.54261436 -11.46557617 4.50268555 C-9.45738505 4.44510555 -7.44938851 4.38086 -5.44140625 4.31640625 C-4.23170166 4.27974854 -3.02199707 4.24309082 -1.77563477 4.20532227 C0.90705456 4.31061734 0.90705456 4.31061734 2 3 C1.34 2.67 0.68 2.34 0 2 C0 1.34 0 0.68 0 0 Z " fill="#8391A7" transform="translate(288,212)"/>
<path d="M0 0 C0.66 0.66 1.32 1.32 2 2 C13.54711347 3.80264216 25.4329024 3.25291579 37 2 C37 2.99 37 3.98 37 5 C34.525 4.505 34.525 4.505 32 4 C31.34 5.32 30.68 6.64 30 8 C29.34 7.34 28.68 6.68 28 6 C24.99292876 5.53314574 24.99292876 5.53314574 21.4609375 5.3671875 C20.15898437 5.28339844 18.85703125 5.19960937 17.515625 5.11328125 C16.13542817 5.03365451 14.75521966 4.95423004 13.375 4.875 C11.98692607 4.78860938 10.59890406 4.70138012 9.2109375 4.61328125 C5.80771375 4.40057977 2.40418978 4.19652924 -1 4 C-0.67 2.68 -0.34 1.36 0 0 Z " fill="#1E3164" transform="translate(167,185)"/>
<path d="M0 0 C9.24 0 18.48 0 28 0 C27.67 2.64 27.34 5.28 27 8 C26.67 8 26.34 8 26 8 C26 6.02 26 4.04 26 2 C17.42 2 8.84 2 0 2 C0 1.34 0 0.68 0 0 Z " fill="#DD9B65" transform="translate(145,157)"/>
<path d="M0 0 C1.22589844 0.15275391 1.22589844 0.15275391 2.4765625 0.30859375 C3.41628906 0.43427734 3.41628906 0.43427734 4.375 0.5625 C4.375 1.5525 4.375 2.5425 4.375 3.5625 C5.365 3.8925 6.355 4.2225 7.375 4.5625 C5.375 6.5625 5.375 6.5625 2.0625 6.9375 C-2.15372769 6.50873108 -3.70794336 5.56795229 -6.625 2.5625 C-6.625 1.9025 -6.625 1.2425 -6.625 0.5625 C-4.10446405 -0.69776798 -2.7707902 -0.35624445 0 0 Z " fill="#20345D" transform="translate(283.625,210.4375)"/>
<path d="M0 0 C0.33 0 0.66 0 1 0 C1 1.65 1 3.3 1 5 C1.66 5.33 2.32 5.66 3 6 C3.33 4.35 3.66 2.7 4 1 C4.5259375 1.7734375 4.5259375 1.7734375 5.0625 2.5625 C7.06860051 4.37711056 7.06860051 4.37711056 10.5 3.75 C13.94938555 3.07822233 13.94938555 3.07822233 17 2 C19.70123106 2.16011121 22.31875231 2.60440608 25 3 C25 3.33 25 3.66 25 4 C7.14350797 7.44419134 7.14350797 7.44419134 -1 7 C-0.67 4.69 -0.34 2.38 0 0 Z " fill="#46526E" transform="translate(9,211)"/>
<path d="M0 0 C0.99 0.66 1.98 1.32 3 2 C2.5188509 7.77378925 0.81532819 11.95859836 -2 17 C-3.92837425 13.3977969 -4.48657288 11.13586947 -4 7 C-2.84406808 4.50218189 -1.49052733 2.32894896 0 0 Z " fill="#21365D" transform="translate(301,194)"/>
<path d="M0 0 C0.33 0 0.66 0 1 0 C0.85923685 1.9587043 0.7122324 3.91696093 0.5625 5.875 C0.48128906 6.96554688 0.40007813 8.05609375 0.31640625 9.1796875 C0 12 0 12 -1 14 C-1.66 14 -2.32 14 -3 14 C-2.67 14.66 -2.34 15.32 -2 16 C-1.01 16 -0.02 16 1 16 C1.33 15.34 1.66 14.68 2 14 C2.33 14.66 2.66 15.32 3 16 C2.67 16.99 2.34 17.98 2 19 C1.401875 19.103125 0.80375 19.20625 0.1875 19.3125 C-3.24098994 20.39002541 -4.22625887 23.02264882 -6 26 C-7.10802635 22.67592094 -6.93700298 22.0983632 -5.8203125 18.9453125 C-5.55089844 18.16542969 -5.28148438 17.38554687 -5.00390625 16.58203125 C-4.71386719 15.77121094 -4.42382812 14.96039063 -4.125 14.125 C-1.62915046 7.18222795 -1.62915046 7.18222795 0 0 Z " fill="#384A6E" transform="translate(29,148)"/>
<path d="M0 0 C2.29160319 -0.02692484 4.58329546 -0.04636124 6.875 -0.0625 C8.15117187 -0.07410156 9.42734375 -0.08570313 10.7421875 -0.09765625 C14 0 14 0 16 1 C15.39254603 5.85963179 13.27241033 9.7405518 11 14 C10.67 14 10.34 14 10 14 C10 5 10 5 11 4 C8.09907498 2.06604999 7.10325263 1.69868059 3.8125 1.375 C1.9253125 1.189375 1.9253125 1.189375 0 1 C0 0.67 0 0.34 0 0 Z " fill="#63738F" transform="translate(307,158)"/>
<path d="M0 0 C0 0.66 0 1.32 0 2 C-1.98 2.33 -3.96 2.66 -6 3 C-6 3.66 -6 4.32 -6 5 C0.27 5.33 6.54 5.66 13 6 C13 6.33 13 6.66 13 7 C5.74 7 -1.52 7 -9 7 C-9.33 6.01 -9.66 5.02 -10 4 C-11.65 3.67 -13.3 3.34 -15 3 C-15 2.67 -15 2.34 -15 2 C-13.43883181 1.66048381 -11.87598662 1.32867456 -10.3125 1 C-9.44238281 0.814375 -8.57226562 0.62875 -7.67578125 0.4375 C-5.06287036 0.01027953 -2.64186962 -0.07616201 0 0 Z " fill="#697793" transform="translate(93,218)"/>
<path d="M0 0 C0.66 0.66 1.32 1.32 2 2 C2.99 2 3.98 2 5 2 C6.1875 4.125 6.1875 4.125 7 7 C5.625 10.3125 5.625 10.3125 4 13 C2 12 2 12 1 9 C0.01 9.495 0.01 9.495 -1 10 C-1.33 8.02 -1.66 6.04 -2 4 C-1.34 4 -0.68 4 0 4 C0 2.68 0 1.36 0 0 Z " fill="#273C63" transform="translate(308,172)"/>
<path d="M0 0 C0 0.66 0 1.32 0 2 C-5.59921863 3.69033015 -10.1950647 4 -16 4 C-15.4375 2.125 -15.4375 2.125 -14 0 C-8.79550425 -2.06215869 -5.0341426 -2.5170713 0 0 Z " fill="#52617B" transform="translate(264,129)"/>
<path d="M0 0 C-3.61973402 1.31626692 -6.09567131 2 -10 2 C-12 -1 -12 -1 -13 -3 C-15.64 -3 -18.28 -3 -21 -3 C-20.67 -3.66 -20.34 -4.32 -20 -5 C-12.48917253 -6.79606744 -6.64129312 -3.45347242 0 0 Z " fill="#445575" transform="translate(283,210)"/>
<path d="M0 0 C0.33 0 0.66 0 1 0 C1.62457273 3.43515002 2 6.49064814 2 10 C4.40529531 11.20264766 5.82184898 11.06780129 8.5 11 C13.7255529 10.93906061 18.81541964 11.38226277 24 12 C24 12.33 24 12.66 24 13 C19.87573464 13.22512171 15.75066151 13.42725588 11.625 13.625 C10.449375 13.68945312 9.27375 13.75390625 8.0625 13.8203125 C6.94101563 13.871875 5.81953125 13.9234375 4.6640625 13.9765625 C3.62717285 14.02893066 2.5902832 14.08129883 1.52197266 14.13525391 C-1 14 -1 14 -3 12 C-2.5390625 9.1796875 -2.5390625 9.1796875 -1.625 5.875 C-1.32851562 4.77929688 -1.03203125 3.68359375 -0.7265625 2.5546875 C-0.48679687 1.71164063 -0.24703125 0.86859375 0 0 Z " fill="#57637F" transform="translate(84,197)"/>
<path d="M0 0 C0.99 0.33 1.98 0.66 3 1 C3.33 2.65 3.66 4.3 4 6 C7.3 6 10.6 6 14 6 C13 8 13 8 11.07421875 8.8515625 C10.28660156 9.10679687 9.49898438 9.36203125 8.6875 9.625 C7.90761719 9.88539063 7.12773437 10.14578125 6.32421875 10.4140625 C4 11 4 11 0 11 C0 7.37 0 3.74 0 0 Z " fill="#494F6F" transform="translate(257,146)"/>
<path d="M0 0 C0.33 0 0.66 0 1 0 C1.33 3.96 1.66 7.92 2 12 C2.66 12 3.32 12 4 12 C4.33 9.03 4.66 6.06 5 3 C5.33 3 5.66 3 6 3 C6 6.63 6 10.26 6 14 C7.98 14 9.96 14 12 14 C12 14.33 12 14.66 12 15 C10.02 15 8.04 15 6 15 C6 15.66 6 16.32 6 17 C4.35 17.33 2.7 17.66 1 18 C-0.2062252 14.38132441 -0.10816918 11.07493749 -0.0625 7.3125 C-0.05798828 6.61060547 -0.05347656 5.90871094 -0.04882812 5.18554688 C-0.03706927 3.45699462 -0.01913454 1.72848635 0 0 Z " fill="#445676" transform="translate(209,118)"/>
<path d="M0 0 C0 0.33 0 0.66 0 1 C-1.98 1 -3.96 1 -6 1 C-6.33 2.32 -6.66 3.64 -7 5 C-7.99 4.67 -8.98 4.34 -10 4 C-11.2236068 3.9254644 -11.2236068 3.9254644 -13 5 C-15.56540521 4.74922443 -18.0785651 4.44070666 -20.625 4.0625 C-21.33140625 3.96259766 -22.0378125 3.86269531 -22.765625 3.75976562 C-24.51121607 3.51208041 -26.25572084 3.25676129 -28 3 C-28 2.67 -28 2.34 -28 2 C-25.02141273 1.66062892 -22.04230315 1.32837741 -19.0625 1 C-18.23169922 0.90460938 -17.40089844 0.80921875 -16.54492188 0.7109375 C-10.99415957 0.10618519 -5.583649 -0.09014973 0 0 Z " fill="#4C5A74" transform="translate(149,211)"/>
<path d="M0 0 C0.33 0 0.66 0 1 0 C1.125 7.625 1.125 7.625 0 11 C-1.98 11.33 -3.96 11.66 -6 12 C-5.38547486 5.48603352 -5.38547486 5.48603352 -3.5625 3.1875 C-3.046875 2.795625 -2.53125 2.40375 -2 2 C-1.34 1.34 -0.68 0.68 0 0 Z " fill="#293B5E" transform="translate(40,201)"/>
<path d="M0 0 C0 4.29 0 8.58 0 13 C-0.33 13 -0.66 13 -1 13 C-1.33 9.7 -1.66 6.4 -2 3 C-3.98 3.99 -3.98 3.99 -6 5 C-6 6.32 -6 7.64 -6 9 C-6.66 9 -7.32 9 -8 9 C-8.99 6.69 -9.98 4.38 -11 2 C-7.36576791 -0.32590854 -4.22911669 -0.16265833 0 0 Z " fill="#416C98" transform="translate(213,170)"/>
<path d="M0 0 C1.32 0 2.64 0 4 0 C4 2.97 4 5.94 4 9 C0.66203244 9.83449189 -2.60694964 10.46019653 -6 11 C-6 10.34 -6 9.68 -6 9 C-5.01 8.67 -4.02 8.34 -3 8 C-3.33 7.34 -3.66 6.68 -4 6 C-2.68 5.34 -1.36 4.68 0 4 C0 2.68 0 1.36 0 0 Z " fill="#7494B8" transform="translate(289,153)"/>
<path d="M0 0 C0 0.99 0 1.98 0 3 C0.99 3 1.98 3 3 3 C3 3.99 3 4.98 3 6 C0.36 6.66 -2.28 7.32 -5 8 C-5 6.68 -5 5.36 -5 4 C-5.99 3.67 -6.98 3.34 -8 3 C-8 2.34 -8 1.68 -8 1 C-5.29120665 -0.35439668 -2.99066732 -0.06501451 0 0 Z " fill="#F3842D" transform="translate(223,166)"/>
<path d="M0 0 C0.66 0.33 1.32 0.66 2 1 C2.5625 2.9375 2.5625 2.9375 3 5 C3.33 5.66 3.66 6.32 4 7 C4.99 7.33 5.98 7.66 7 8 C7 8.66 7 9.32 7 10 C2.545 10.495 2.545 10.495 -2 11 C-2 7.7 -2 4.4 -2 1 C-1.34 0.67 -0.68 0.34 0 0 Z " fill="#EE8939" transform="translate(264,156)"/>
<path d="M0 0 C3.96 0 7.92 0 12 0 C12 0.33 12 0.66 12 1 C9.36 1.33 6.72 1.66 4 2 C3.67 4.31 3.34 6.62 3 9 C4.32 9.66 5.64 10.32 7 11 C4.69 11.33 2.38 11.66 0 12 C0 8.04 0 4.08 0 0 Z " fill="#637088" transform="translate(276,152)"/>
<path d="M0 0 C-1.32 1.65 -2.64 3.3 -4 5 C-3.34 5.33 -2.68 5.66 -2 6 C-2 6.66 -2 7.32 -2 8 C-3.99954746 8.04254356 -6.00041636 8.04080783 -8 8 C-9 7 -9 7 -9.0625 3.9375 C-9.041875 2.968125 -9.02125 1.99875 -9 1 C-6.04335481 -0.4783226 -3.25770263 -0.06032783 0 0 Z " fill="#F7872F" transform="translate(254,150)"/>
<path d="M0 0 C3.625 0.375 3.625 0.375 7 1 C7 1.99 7 2.98 7 4 C3.25 6 3.25 6 1 6 C1 7.98 1 9.96 1 12 C0.67 12 0.34 12 0 12 C0 10.35 0 8.7 0 7 C-0.66 7 -1.32 7 -2 7 C-2.125 4.625 -2.125 4.625 -2 2 C-1.34 1.34 -0.68 0.68 0 0 Z " fill="#4E84B8" transform="translate(198,172)"/>
<path d="M0 0 C0 0.33 0 0.66 0 1 C-0.62648438 0.96519531 -1.25296875 0.93039063 -1.8984375 0.89453125 C-2.71570313 0.86746094 -3.53296875 0.84039062 -4.375 0.8125 C-5.59316406 0.76029297 -5.59316406 0.76029297 -6.8359375 0.70703125 C-7.55007813 0.80371094 -8.26421875 0.90039062 -9 1 C-9.99 2.485 -9.99 2.485 -11 4 C-11 3.34 -11 2.68 -11 2 C-11.99 2.495 -11.99 2.495 -13 3 C-15.04055005 3.07065617 -17.08334257 3.08421976 -19.125 3.0625 C-20.22070312 3.05347656 -21.31640625 3.04445312 -22.4453125 3.03515625 C-23.70988281 3.01775391 -23.70988281 3.01775391 -25 3 C-17.43620021 -2.04253319 -8.65268071 -1.10016902 0 0 Z " fill="#CFA37F" transform="translate(267,146)"/>
<path d="M0 0 C-0.66 0 -1.32 0 -2 0 C-2 3.96 -2 7.92 -2 12 C-0.411875 11.484375 1.17625 10.96875 2.8125 10.4375 C7.625 8.875 7.625 8.875 11 10 C6.03006806 12.43425238 2.65394631 13.34615998 -3 13 C-3.33 9.7 -3.66 6.4 -4 3 C-6.64 2.67 -9.28 2.34 -12 2 C-12 1.67 -12 1.34 -12 1 C-3.96428571 -1.27678571 -3.96428571 -1.27678571 0 0 Z " fill="#C29979" transform="translate(229,153)"/>
<path d="M0 0 C2.97 0.495 2.97 0.495 6 1 C5.67 3.97 5.34 6.94 5 10 C4.01 10 3.02 10 2 10 C2.33 7.36 2.66 4.72 3 2 C1.68 2.33 0.36 2.66 -1 3 C-1.33 5.64 -1.66 8.28 -2 11 C-3.125 9.3125 -3.125 9.3125 -4 7 C-3.125 4.25 -3.125 4.25 -2 2 C-1.34 2 -0.68 2 0 2 C0 1.34 0 0.68 0 0 Z M0 10 C0.66 10 1.32 10 2 10 C2 11.32 2 12.64 2 14 C1.34 13.67 0.68 13.34 0 13 C0 12.01 0 11.02 0 10 Z " fill="#14294E" transform="translate(306,162)"/>
<path d="M0 0 C-0.48082031 0.35707031 -0.96164063 0.71414062 -1.45703125 1.08203125 C-3.68424838 3.85054672 -3.51394011 6.18159023 -3.6875 9.6875 C-3.75324219 10.86699219 -3.81898438 12.04648438 -3.88671875 13.26171875 C-3.92410156 14.16535156 -3.96148437 15.06898438 -4 16 C-5.32 15.67 -6.64 15.34 -8 15 C-7.34 14.67 -6.68 14.34 -6 14 C-6 9.38 -6 4.76 -6 0 C-3.50907189 -1.24546405 -2.58919267 -0.7767578 0 0 Z " fill="#93766C" transform="translate(249,162)"/>
<path d="M0 0 C0.33 1.32 0.66 2.64 1 4 C2.32 3.34 3.64 2.68 5 2 C6.83117102 5.13188377 7.2718057 7.44820595 7.25 11.0625 C7.25515625 11.91972656 7.2603125 12.77695313 7.265625 13.66015625 C7 16 7 16 5 19 C3.68 17.68 2.36 16.36 1 15 C2.32 14.67 3.64 14.34 5 14 C5 11.69 5 9.38 5 7 C3.02 6.01 1.04 5.02 -1 4 C-0.67 2.68 -0.34 1.36 0 0 Z " fill="#66718B" transform="translate(183,140)"/>
<path d="M0 0 C1.65 0.33 3.3 0.66 5 1 C5 2.32 5 3.64 5 5 C5.66 4.67 6.32 4.34 7 4 C8.99960012 3.960008 11.00047242 3.95653201 13 4 C13 4.33 13 4.66 13 5 C11.35 5 9.7 5 8 5 C8 8.96 8 12.92 8 17 C8.66 17.33 9.32 17.66 10 18 C9.01 18 8.02 18 7 18 C6.95101563 17.21753906 6.90203125 16.43507812 6.8515625 15.62890625 C6.77679688 14.61699219 6.70203125 13.60507813 6.625 12.5625 C6.52058594 11.04849609 6.52058594 11.04849609 6.4140625 9.50390625 C6.27742188 8.67761719 6.14078125 7.85132813 6 7 C5.34 6.67 4.68 6.34 4 6 C3.67 5.01 3.34 4.02 3 3 C0.98491642 2.26676204 0.98491642 2.26676204 -1 2 C-0.67 1.34 -0.34 0.68 0 0 Z " fill="#BEAA9E" transform="translate(268,147)"/>
<path d="M0 0 C1.67004829 0.31595508 3.33637583 0.65179959 5 1 C6.32 1 7.64 1 9 1 C8.34 2.32 7.68 3.64 7 5 C6.01 5 5.02 5 4 5 C2.66018514 5.3062434 1.32488113 5.63451555 0 6 C-0.38218767 4.34385343 -0.71395102 2.67542976 -1 1 C-0.67 0.67 -0.34 0.34 0 0 Z " fill="#62708B" transform="translate(226,141)"/>
<path d="M0 0 C1.22589844 0.01353516 1.22589844 0.01353516 2.4765625 0.02734375 C3.41628906 0.04474609 3.41628906 0.04474609 4.375 0.0625 C5.04166667 1.39583333 5.70833333 2.72916667 6.375 4.0625 C2.085 3.7325 -2.205 3.4025 -6.625 3.0625 C-6.625 2.4025 -6.625 1.7425 -6.625 1.0625 C-4.21954362 -0.14022819 -2.67503047 -0.03821472 0 0 Z " fill="#10275C" transform="translate(152.625,219.9375)"/>
<path d="M0 0 C-0.66 3.63 -1.32 7.26 -2 11 C-2.33 11 -2.66 11 -3 11 C-3 9.35 -3 7.7 -3 6 C-3.99 5.67 -4.98 5.34 -6 5 C-6 3.35 -6 1.7 -6 0 C-3 -1 -3 -1 0 0 Z " fill="#1D335E" transform="translate(318,166)"/>
<path d="M0 0 C0.33 0 0.66 0 1 0 C0.68671942 8.80426458 0.38954192 16.74720228 -3 25 C-3.33 25 -3.66 25 -4 25 C-3.49451662 16.45907394 -1.93265709 8.32622708 0 0 Z " fill="#E49C73" transform="translate(119,169)"/>
<path d="M0 0 C0.33 0 0.66 0 1 0 C1 5.94 1 11.88 1 18 C0.01 18 -0.98 18 -2 18 C-2.66 20.97 -3.32 23.94 -4 27 C-4.33 27 -4.66 27 -5 27 C-5 24.03 -5 21.06 -5 18 C-3.35 17.67 -1.7 17.34 0 17 C0 11.39 0 5.78 0 0 Z " fill="#5C6986" transform="translate(181,156)"/>
<path d="M0 0 C0.60328125 0.34804687 1.2065625 0.69609375 1.828125 1.0546875 C1.85508865 2.84627239 1.87450417 4.63797223 1.890625 6.4296875 C1.90222656 7.42742187 1.91382813 8.42515625 1.92578125 9.453125 C1.828125 12.0546875 1.828125 12.0546875 0.828125 14.0546875 C-0.161875 13.7246875 -1.151875 13.3946875 -2.171875 13.0546875 C-2.171875 12.3946875 -2.171875 11.7346875 -2.171875 11.0546875 C-1.181875 11.0546875 -0.191875 11.0546875 0.828125 11.0546875 C0.828125 8.0846875 0.828125 5.1146875 0.828125 2.0546875 C-1.811875 2.3846875 -4.451875 2.7146875 -7.171875 3.0546875 C-7.171875 2.3946875 -7.171875 1.7346875 -7.171875 1.0546875 C-2.70649038 -1.17800481 -2.70649038 -1.17800481 0 0 Z " fill="#DE9B68" transform="translate(273.171875,152.9453125)"/>
<path d="M0 0 C1.41823316 0.08006155 2.83603027 0.17654137 4.25 0.3125 C1.76047079 2.97985273 -0.38408134 4.86996343 -3.75 6.3125 C-3.75 5.6525 -3.75 4.9925 -3.75 4.3125 C-5.4 4.6425 -7.05 4.9725 -8.75 5.3125 C-6.33348981 1.10987358 -4.73606739 -0.03729187 0 0 Z " fill="#4D5D7D" transform="translate(194.75,131.6875)"/>
<path d="M0 0 C0.99 0 1.98 0 3 0 C3 3.96 3 7.92 3 12 C2.01 12 1.02 12 0 12 C0 8.04 0 4.08 0 0 Z " fill="#BB5D44" transform="translate(212,157)"/>
<path d="M0 0 C0.99 0.33 1.98 0.66 3 1 C3 2.65 3 4.3 3 6 C0.36 6 -2.28 6 -5 6 C-5 5.01 -5 4.02 -5 3 C-4.01 2.67 -3.02 2.34 -2 2 C-1.34 1.34 -0.68 0.68 0 0 Z " fill="#16294D" transform="translate(105,203)"/>
<path d="M0 0 C0.33 0 0.66 0 1 0 C1.66 2.97 2.32 5.94 3 9 C5.31 9 7.62 9 10 9 C6.99382731 12.00617269 4.17618402 11.59585316 0 12 C0 8.04 0 4.08 0 0 Z " fill="#466B89" transform="translate(227,153)"/>
<path d="M0 0 C1.50149998 3.95025498 0.54302146 7.51272802 -0.3125 11.5 C-0.44333984 12.16386719 -0.57417969 12.82773438 -0.70898438 13.51171875 C-1.41712918 16.93955013 -2.22850364 19.96756956 -4 23 C-4 21.68 -4 20.36 -4 19 C-4.66 19 -5.32 19 -6 19 C-5.67 18.34 -5.34 17.68 -5 17 C-4.34 17.33 -3.68 17.66 -3 18 C-3.04125 16.824375 -3.0825 15.64875 -3.125 14.4375 C-3.13414649 9.27888096 -1.61907501 4.85722504 0 0 Z " fill="#727B91" transform="translate(120,147)"/>
<path d="M0 0 C0.66 0.33 1.32 0.66 2 1 C-0.875 6.875 -0.875 6.875 -2 8 C-4.35313555 8.07271741 -6.70833668 8.08370868 -9.0625 8.0625 C-10.35285156 8.05347656 -11.64320313 8.04445312 -12.97265625 8.03515625 C-13.97167969 8.02355469 -14.97070312 8.01195312 -16 8 C-16 7.67 -16 7.34 -16 7 C-15.18015625 6.87882813 -14.3603125 6.75765625 -13.515625 6.6328125 C-12.43796875 6.46523437 -11.3603125 6.29765625 -10.25 6.125 C-9.18265625 5.96257812 -8.1153125 5.80015625 -7.015625 5.6328125 C-4.32291129 5.06776118 -2.36427561 4.36577086 0 3 C0 2.01 0 1.02 0 0 Z " fill="#E38647" transform="translate(170,199)"/>
<path d="M0 0 C1.32 0 2.64 0 4 0 C4 2.31 4 4.62 4 7 C2.68 7.33 1.36 7.66 0 8 C-0.79953138 4.71303767 -1.09658936 3.28976808 0 0 Z " fill="#63778F" transform="translate(202,141)"/>
<path d="M0 0 C1.32 0.33 2.64 0.66 4 1 C2.61918777 5.1424367 0.40174442 6.32203099 -3 9 C-3.75 7.3125 -3.75 7.3125 -4 5 C-2.0625 2.25 -2.0625 2.25 0 0 Z " fill="#526180" transform="translate(89,165)"/>
<path d="M0 0 C0.33 0 0.66 0 1 0 C1 2.97 1 5.94 1 9 C2.32 8.34 3.64 7.68 5 7 C4.67 8.32 4.34 9.64 4 11 C3.34 11 2.68 11 2 11 C1.71125 11.78375 1.4225 12.5675 1.125 13.375 C0 16 0 16 -2 18 C-1.34 12.06 -0.68 6.12 0 0 Z " fill="#546485" transform="translate(34,125)"/>
<path d="M0 0 C0.33 0 0.66 0 1 0 C0.51679152 6.2054142 -0.33318124 11.99945246 -2 18 C-2.33 18 -2.66 18 -3 18 C-3.37634203 11.19796625 -2.77471079 6.24309927 0 0 Z " fill="#535F71" transform="translate(111,190)"/>
<path d="M0 0 C0.33 0.66 0.66 1.32 1 2 C1.66 2 2.32 2 3 2 C2.67 3.32 2.34 4.64 2 6 C-0.97 6 -3.94 6 -7 6 C-6 4 -6 4 -2.9375 2.875 C-1.4834375 2.441875 -1.4834375 2.441875 0 2 C0 1.34 0 0.68 0 0 Z " fill="#5D6A84" transform="translate(68,188)"/>
<path d="M0 0 C2.475 0.495 2.475 0.495 5 1 C5 2.65 5 4.3 5 6 C3.35 6.33 1.7 6.66 0 7 C0 4.69 0 2.38 0 0 Z " fill="#79829C" transform="translate(213,141)"/>
<path d="M0 0 C0.66 0 1.32 0 2 0 C1.27623543 3.49403583 -0.06285206 6.51998905 -1.5625 9.75 C-2.01753906 10.73484375 -2.47257813 11.7196875 -2.94140625 12.734375 C-3.29074219 13.48203125 -3.64007813 14.2296875 -4 15 C-4.33 15 -4.66 15 -5 15 C-5 13.02 -5 11.04 -5 9 C-4.34 9 -3.68 9 -3 9 C-2.87625 8.443125 -2.7525 7.88625 -2.625 7.3125 C-1.94023145 4.77885636 -1.00866237 2.42078968 0 0 Z " fill="#E5A475" transform="translate(187,123)"/>
<path d="M0 0 C1.19882813 0.15275391 1.19882813 0.15275391 2.421875 0.30859375 C3.02515625 0.39238281 3.6284375 0.47617188 4.25 0.5625 C3.26 0.8925 2.27 1.2225 1.25 1.5625 C1.25 2.2225 1.25 2.8825 1.25 3.5625 C-1.39 3.5625 -4.03 3.5625 -6.75 3.5625 C-6.75 2.9025 -6.75 2.2425 -6.75 1.5625 C-7.41 1.2325 -8.07 0.9025 -8.75 0.5625 C-5.62819599 -0.40411363 -3.22916205 -0.42738909 0 0 Z " fill="#6C779D" transform="translate(184.75,203.4375)"/>
<path d="M0 0 C0.5775 0.4125 1.155 0.825 1.75 1.25 C2.74 1.91 3.73 2.57 4.75 3.25 C1.05516081 4.43234854 -2.39353614 4.5304701 -6.25 4.25 C-8.1875 2.75 -8.1875 2.75 -9.25 1.25 C-2.87264151 -0.95754717 -2.87264151 -0.95754717 0 0 Z " fill="#8995B2" transform="translate(252.25,198.75)"/>
<path d="M0 0 C1.32 0 2.64 0 4 0 C4 2.31 4 4.62 4 7 C2.68 7 1.36 7 0 7 C0 4.69 0 2.38 0 0 Z " fill="#6D7B97" transform="translate(207,141)"/>
<path d="M0 0 C1.56454159 4.02014661 0.46223974 7.69925681 -0.4375 11.75 C-0.58509766 12.44738281 -0.73269531 13.14476562 -0.88476562 13.86328125 C-1.24868033 15.5772021 -1.62329068 17.28884581 -2 19 C-2.33 19 -2.66 19 -3 19 C-3.39325819 12.02330843 -2.63096039 6.48343811 0 0 Z " fill="#66708B" transform="translate(124,128)"/>
<path d="M0 0 C0 3.96 0 7.92 0 12 C-0.66 12 -1.32 12 -2 12 C-2 8.7 -2 5.4 -2 2 C-3.32 1.67 -4.64 1.34 -6 1 C-3 0 -3 0 0 0 Z " fill="#F49D62" transform="translate(217,155)"/>
<path d="M0 0 C2 1 2 1 3 2 C3.07179964 3.51928038 3.08392007 5.04167482 3.0625 6.5625 C3.05347656 7.38878906 3.04445312 8.21507812 3.03515625 9.06640625 C3.01775391 10.02353516 3.01775391 10.02353516 3 11 C2.01 11 1.02 11 0 11 C0 7.37 0 3.74 0 0 Z " fill="#D39490" transform="translate(203,158)"/>
<path d="M0 0 C0 0.66 0 1.32 0 2 C-0.99 2.495 -0.99 2.495 -2 3 C-3.05352843 5.30965848 -4.05719096 7.6429774 -5 10 C-5.33 10 -5.66 10 -6 10 C-6.54372951 6.94152152 -7 4.11227195 -7 1 C-4.50935112 0.31292445 -2.62113708 0 0 0 Z " fill="#B86B67" transform="translate(212,157)"/>
<path d="M0 0 C0.33 0.66 0.66 1.32 1 2 C0 5 0 5 -3 7 C-3.309375 7.845625 -3.61875 8.69125 -3.9375 9.5625 C-4.288125 10.366875 -4.63875 11.17125 -5 12 C-7.125 12.8125 -7.125 12.8125 -9 13 C-7.4722133 9.56247993 -5.49818944 6.81046312 -3 4 C-2.34 4 -1.68 4 -1 4 C-0.67 2.68 -0.34 1.36 0 0 Z " fill="#67778F" transform="translate(101,123)"/>
<path d="M0 0 C1.32 0 2.64 0 4 0 C4.66 1.65 5.32 3.3 6 5 C3.36 5 0.72 5 -2 5 C-1.34 3.35 -0.68 1.7 0 0 Z " fill="#627084" transform="translate(210,112)"/>
<path d="M0 0 C0.66 0.66 1.32 1.32 2 2 C3.92901141 2.45974503 3.92901141 2.45974503 6.1328125 2.6328125 C7.34130859 2.75849609 7.34130859 2.75849609 8.57421875 2.88671875 C9.83685547 3.00466797 9.83685547 3.00466797 11.125 3.125 C12.39923828 3.25455078 12.39923828 3.25455078 13.69921875 3.38671875 C15.79869727 3.59902557 17.89926242 3.80053603 20 4 C20 4.33 20 4.66 20 5 C13.07 4.67 6.14 4.34 -1 4 C-0.67 2.68 -0.34 1.36 0 0 Z " fill="#B5BBC7" transform="translate(167,185)"/>
<path d="M0 0 C0.33 0 0.66 0 1 0 C1 2.64 1 5.28 1 8 C-5.435 9.98 -5.435 9.98 -12 12 C-12 11.34 -12 10.68 -12 10 C-10.56445975 9.49440092 -9.1264798 8.9957251 -7.6875 8.5 C-6.88699219 8.2215625 -6.08648437 7.943125 -5.26171875 7.65625 C-3 7 -3 7 0 7 C0 4.69 0 2.38 0 0 Z " fill="#BF8C63" transform="translate(256,150)"/>
<path d="M0 0 C4.75 0.875 4.75 0.875 7 2 C7 2.66 7 3.32 7 4 C2.83861737 4.08159574 -0.9472484 3.98248524 -5 3 C-5 2.67 -5 2.34 -5 2 C-3.35 2 -1.7 2 0 2 C0 1.34 0 0.68 0 0 Z " fill="#778198" transform="translate(305,218)"/>
<path d="M0 0 C2.0625 0.4375 2.0625 0.4375 4 1 C4 2.65 4 4.3 4 6 C2.68 6 1.36 6 0 6 C-0.38218767 4.34385343 -0.71395102 2.67542976 -1 1 C-0.67 0.67 -0.34 0.34 0 0 Z " fill="#718096" transform="translate(220,141)"/>
<path d="M0 0 C2.61580479 0.3269756 4.64078137 0.82039068 7 2 C7 2.66 7 3.32 7 4 C4.69 4.33 2.38 4.66 0 5 C0 4.34 0 3.68 0 3 C-0.66 2.67 -1.32 2.34 -2 2 C-1.34 1.34 -0.68 0.68 0 0 Z " fill="#616E8C" transform="translate(257,127)"/>
<path d="M0 0 C-0.33 0.33 -0.66 0.66 -1 1 C-0.01 1.66 0.98 2.32 2 3 C-0.64 3 -3.28 3 -6 3 C-6.33 1.68 -6.66 0.36 -7 -1 C-3.51418144 -2.2020064 -3.32007656 -2.21338437 0 0 Z " fill="#122950" transform="translate(245,221)"/>
<path d="M0 0 C5.61 0 11.22 0 17 0 C16.67 0.99 16.34 1.98 16 3 C10.72 2.34 5.44 1.68 0 1 C0 0.67 0 0.34 0 0 Z " fill="#44526E" transform="translate(121,213)"/>
<path d="M0 0 C0.33 0 0.66 0 1 0 C1 1.65 1 3.3 1 5 C1.66 5.33 2.32 5.66 3 6 C3.33 4.35 3.66 2.7 4 1 C4.28875 1.61875 4.5775 2.2375 4.875 2.875 C5.93720042 5.13325765 5.93720042 5.13325765 8 7 C5.03 7 2.06 7 -1 7 C-0.67 4.69 -0.34 2.38 0 0 Z " fill="#606E8B" transform="translate(9,211)"/>
<path d="M0 0 C0.33 0 0.66 0 1 0 C0.85923685 1.9587043 0.7122324 3.91696093 0.5625 5.875 C0.48128906 6.96554688 0.40007813 8.05609375 0.31640625 9.1796875 C0 12 0 12 -1 14 C-1.66 14 -2.32 14 -3 14 C-3.33 14.66 -3.66 15.32 -4 16 C-3.31092878 12.34056353 -2.43178734 8.77558041 -1.4375 5.1875 C-1.16808594 4.21167969 -0.89867187 3.23585937 -0.62109375 2.23046875 C-0.41613281 1.49441406 -0.21117187 0.75835937 0 0 Z " fill="#6E7C93" transform="translate(29,148)"/>
<path d="M0 0 C0.66 0 1.32 0 2 0 C0.92598892 2.91517292 0.22189824 4.77810176 -2 7 C-4.68839385 7.26991906 -7.29141936 7.08737357 -10 7 C-10 6.67 -10 6.34 -10 6 C-8.63875 5.9071875 -8.63875 5.9071875 -7.25 5.8125 C-3.24007492 4.81001873 -2.35291714 3.27727745 0 0 Z " fill="#EBB794" transform="translate(180,138)"/>
<path d="M0 0 C1.98 0 3.96 0 6 0 C6.33 0.66 6.66 1.32 7 2 C6.01 2.33 5.02 2.66 4 3 C2.77030122 6.51190809 2.77030122 6.51190809 2 10 C1.67 10 1.34 10 1 10 C0.67 6.7 0.34 3.4 0 0 Z " fill="#14294C" transform="translate(34,124)"/>
<path d="M0 0 C1.65 0 3.3 0 5 0 C5.33 1.32 5.66 2.64 6 4 C3.36 4 0.72 4 -2 4 C-1.34 3.67 -0.68 3.34 0 3 C0 2.01 0 1.02 0 0 Z " fill="#14294D" transform="translate(78,221)"/>
<path d="M0 0 C0.66 0 1.32 0 2 0 C2.26785714 8.03571429 2.26785714 8.03571429 0 12 C-0.19573608 10.56359829 -0.38127816 9.12580496 -0.5625 7.6875 C-0.66691406 6.88699219 -0.77132812 6.08648437 -0.87890625 5.26171875 C-1 3 -1 3 0 0 Z " fill="#43536C" transform="translate(113,173)"/>
<path d="M0 0 C2.0625 0.4375 2.0625 0.4375 4 1 C3.34 1 2.68 1 2 1 C2 4.3 2 7.6 2 11 C1.67 11 1.34 11 1 11 C1 9.35 1 7.7 1 6 C0.34 6 -0.32 6 -1 6 C-1.042721 4.33388095 -1.04063832 2.66617115 -1 1 C-0.67 0.67 -0.34 0.34 0 0 Z " fill="#4D76A3" transform="translate(197,173)"/>
<path d="M0 0 C0 0.66 0 1.32 0 2 C-0.66 2.66 -1.32 3.32 -2 4 C-5.625 3.625 -5.625 3.625 -9 3 C-9 2.34 -9 1.68 -9 1 C-5.92677456 0.08941469 -3.19902639 -0.08886184 0 0 Z " fill="#85A3C7" transform="translate(210,183)"/>
<path d="M0 0 C2.52588702 2.36292656 3.88820837 3.66462511 5 7 C3.35 7.33 1.7 7.66 0 8 C-0.79953138 4.71303767 -1.09658936 3.28976808 0 0 Z " fill="#5788A8" transform="translate(246,168)"/>
<path d="M0 0 C0 2.31 0 4.62 0 7 C-1.65 7.33 -3.3 7.66 -5 8 C-4.74438677 5.6568787 -4.40729228 3.32156597 -4 1 C-2 0 -2 0 0 0 Z M-3 3 C-3.33 4.32 -3.66 5.64 -4 7 C-3.01 7 -2.02 7 -1 7 C-1 5.68 -1 4.36 -1 3 C-1.66 3 -2.32 3 -3 3 Z " fill="#5C6A89" transform="translate(309,164)"/>
<path d="M0 0 C0.66 0.33 1.32 0.66 2 1 C1.71872579 2.48117801 1.42466268 3.95993249 1.125 5.4375 C0.96257812 6.26121094 0.80015625 7.08492187 0.6328125 7.93359375 C0.42398437 8.61550781 0.21515625 9.29742187 0 10 C-0.99 10.495 -0.99 10.495 -2 11 C-2 7.7 -2 4.4 -2 1 C-1.34 0.67 -0.68 0.34 0 0 Z " fill="#EC9857" transform="translate(264,156)"/>
<path d="M0 0 C2.31 0 4.62 0 7 0 C7.33 1.32 7.66 2.64 8 4 C7.236875 3.814375 6.47375 3.62875 5.6875 3.4375 C2.91032625 2.77180827 2.91032625 2.77180827 0 4 C0 2.68 0 1.36 0 0 Z " fill="#172E5A" transform="translate(184,140)"/>
<path d="M0 0 C0.33 1.32 0.66 2.64 1 4 C-3.61073111 5.29676812 -7.33840089 4.71109139 -12 4 C-12 3.67 -12 3.34 -12 3 C-6.06 2.505 -6.06 2.505 0 2 C0 1.34 0 0.68 0 0 Z " fill="#8291A9" transform="translate(237,135)"/>
<path d="M0 0 C-0.33 0.99 -0.66 1.98 -1 3 C-4.33333333 3 -7.66666667 3 -11 3 C-6.86621405 0.2441427 -4.94796454 -0.10756445 0 0 Z " fill="#4E6F8D" transform="translate(260,158)"/>
<path d="M0 0 C1.32 0 2.64 0 4 0 C4 2.97 4 5.94 4 9 C3.67 8.01 3.34 7.02 3 6 C2.34 6 1.68 6 1 6 C0.67 4.02 0.34 2.04 0 0 Z " fill="#87A3B7" transform="translate(289,153)"/>
<path d="M0 0 C4.75 0.75 4.75 0.75 7 3 C7 3.99 7 4.98 7 6 C4.0625 5.25 4.0625 5.25 1 4 C0.125 1.875 0.125 1.875 0 0 Z " fill="#7C8496" transform="translate(240,121)"/>
<path d="M0 0 C1.6396875 0.0928125 1.6396875 0.0928125 3.3125 0.1875 C2.9825 1.1775 2.6525 2.1675 2.3125 3.1875 C-0.6575 3.1875 -3.6275 3.1875 -6.6875 3.1875 C-3.6875 0.1875 -3.6875 0.1875 0 0 Z " fill="#122B57" transform="translate(223.6875,201.8125)"/>
<path d="M0 0 C-0.33 0.99 -0.66 1.98 -1 3 C-3.31 3 -5.62 3 -8 3 C-8 2.34 -8 1.68 -8 1 C-5.29120665 -0.35439668 -2.99066732 -0.06501451 0 0 Z " fill="#EA7A2A" transform="translate(223,166)"/>
<path d="M0 0 C0.66 0 1.32 0 2 0 C2 0.66 2 1.32 2 2 C2.66 2.33 3.32 2.66 4 3 C3.34 4.32 2.68 5.64 2 7 C0.68 6.01 -0.64 5.02 -2 4 C-1.34 2.68 -0.68 1.36 0 0 Z " fill="#41516E" transform="translate(51,164)"/>
<path d="M0 0 C0.66 0.33 1.32 0.66 2 1 C0.8125 3.9375 0.8125 3.9375 -1 7 C-3.6875 7.875 -3.6875 7.875 -6 8 C-4.02 5.36 -2.04 2.72 0 0 Z " fill="#6B7A91" transform="translate(82,146)"/>
<path d="M0 0 C1.32 1.32 2.64 2.64 4 4 C-2.93 3.505 -2.93 3.505 -10 3 C-10 2.67 -10 2.34 -10 2 C-9.04287109 1.90912109 -9.04287109 1.90912109 -8.06640625 1.81640625 C-6.82697266 1.69072266 -6.82697266 1.69072266 -5.5625 1.5625 C-4.73878906 1.48128906 -3.91507812 1.40007812 -3.06640625 1.31640625 C-1.01337975 1.21069185 -1.01337975 1.21069185 0 0 Z " fill="#37496A" transform="translate(290,215)"/>
<path d="M0 0 C1.32 0 2.64 0 4 0 C5.10844919 3.32534757 4.84454356 5.62182575 4 9 C2.00902154 6.01353231 1.05875074 3.40312738 0 0 Z " fill="#4F5E7A" transform="translate(57,182)"/>
<path d="M0 0 C2.0625 0.4375 2.0625 0.4375 4 1 C3.51917969 1.39832031 3.03835937 1.79664063 2.54296875 2.20703125 C0.62608175 4.43450247 0.52258357 5.78834669 0.3125 8.6875 C0.24675781 9.49574219 0.18101562 10.30398437 0.11328125 11.13671875 C0.07589844 11.75160156 0.03851563 12.36648437 0 13 C-0.33 13 -0.66 13 -1 13 C-1.02686553 11.02090602 -1.04633375 9.04171029 -1.0625 7.0625 C-1.07410156 5.96035156 -1.08570313 4.85820312 -1.09765625 3.72265625 C-1 1 -1 1 0 0 Z " fill="#4F5E6C" transform="translate(245,161)"/>
<path d="M0 0 C1.31223496 3.93670488 0.24296256 6.12488144 -1 10 C-1.33 10 -1.66 10 -2 10 C-2.6875 6.6875 -2.6875 6.6875 -3 3 C-1.5625 1.0625 -1.5625 1.0625 0 0 Z " fill="#162648" transform="translate(119,147)"/>
<path d="M0 0 C-0.75 1.9375 -0.75 1.9375 -2 4 C-4.125 4.75 -4.125 4.75 -6 5 C-6 3.68 -6 2.36 -6 1 C-3.92446352 0.4465236 -2.15634036 0 0 0 Z " fill="#2F476D" transform="translate(191,136)"/>
<path d="M0 0 C1.98 0 3.96 0 6 0 C6 0.66 6 1.32 6 2 C6.66 2.33 7.32 2.66 8 3 C5.69 3 3.38 3 1 3 C0.67 2.01 0.34 1.02 0 0 Z " fill="#16294A" transform="translate(160,222)"/>
<path d="M0 0 C3.3 0.33 6.6 0.66 10 1 C8.68 1.99 7.36 2.98 6 4 C4.02 3.01 2.04 2.02 0 1 C0 0.67 0 0.34 0 0 Z " fill="#425071" transform="translate(253,203)"/>
<path d="M0 0 C1.65 0 3.3 0 5 0 C3.25 3.875 3.25 3.875 1 5 C1 4.34 1 3.68 1 3 C0.34 3 -0.32 3 -1 3 C-0.67 2.01 -0.34 1.02 0 0 Z " fill="#4F5F7E" transform="translate(76,179)"/>
<path d="M0 0 C3.3 0 6.6 0 10 0 C9.67 0.66 9.34 1.32 9 2 C6.93359375 2.4140625 6.93359375 2.4140625 4.4375 2.625 C3.61121094 2.69976562 2.78492188 2.77453125 1.93359375 2.8515625 C0.97646484 2.92503906 0.97646484 2.92503906 0 3 C0 2.01 0 1.02 0 0 Z " fill="#48445D" transform="translate(261,152)"/>
<path d="M0 0 C-0.66 1.32 -1.32 2.64 -2 4 C-2.99 4 -3.98 4 -5 4 C-5.33 2.68 -5.66 1.36 -6 0 C-3 -1 -3 -1 0 0 Z " fill="#838C9E" transform="translate(235,142)"/>
<path d="M0 0 C-2.55068845 2.35448165 -3.71017358 2.98327924 -7.25 3.1875 C-8.1575 3.125625 -9.065 3.06375 -10 3 C-10 2.34 -10 1.68 -10 1 C-6.78548731 -0.60725635 -3.56387464 -0.05748185 0 0 Z " fill="#2C4369" transform="translate(156,220)"/>
<path d="M0 0 C0.33 0.66 0.66 1.32 1 2 C1.99 2.33 2.98 2.66 4 3 C2 5 2 5 -1.125 5.125 C-2.548125 5.063125 -2.548125 5.063125 -4 5 C-3.67 4.01 -3.34 3.02 -3 2 C-2.01 2.33 -1.02 2.66 0 3 C0 2.01 0 1.02 0 0 Z " fill="#0F2752" transform="translate(287,212)"/>
<path d="M0 0 C3.3 0.33 6.6 0.66 10 1 C10 1.33 10 1.66 10 2 C6.37 2.33 2.74 2.66 -1 3 C-0.67 2.01 -0.34 1.02 0 0 Z " fill="#465F7A" transform="translate(24,213)"/>
<path d="M0 0 C1.98 0.495 1.98 0.495 4 1 C3.01 2.98 2.02 4.96 1 7 C-0.0625 5.1875 -0.0625 5.1875 -1 3 C-0.67 2.01 -0.34 1.02 0 0 Z " fill="#495B72" transform="translate(298,204)"/>
<path d="M0 0 C0.99 0.33 1.98 0.66 3 1 C3.33 1.99 3.66 2.98 4 4 C2.02 4.33 0.04 4.66 -2 5 C-1.34 3.35 -0.68 1.7 0 0 Z " fill="#182A53" transform="translate(175,200)"/>
<path d="M0 0 C3.26954202 0.56371414 4.82575883 1.49962266 7 4 C6.01 4.33 5.02 4.66 4 5 C1 3 1 3 0 0 Z " fill="#0F2B52" transform="translate(258,172)"/>
<path d="M0 0 C3.5625 0.1875 3.5625 0.1875 5.5625 2.1875 C2.79985711 2.78482819 0.40217231 3.1875 -2.4375 3.1875 C-3.0975 2.5275 -3.7575 1.8675 -4.4375 1.1875 C-3.4375 0.1875 -3.4375 0.1875 0 0 Z " fill="#CEAB84" transform="translate(266.4375,165.8125)"/>
<path d="M0 0 C0 0.99 0 1.98 0 3 C-3.3 2.67 -6.6 2.34 -10 2 C-10 1.67 -10 1.34 -10 1 C-6.59437148 0.22157062 -3.49234244 -0.09978121 0 0 Z " fill="#506585" transform="translate(204,187)"/>
<path d="M0 0 C1.32 0 2.64 0 4 0 C4 2 4 2 2.75 3.6875 C2.1725 4.120625 1.595 4.55375 1 5 C-1.1875 4.6875 -1.1875 4.6875 -3 4 C-2.34 3.67 -1.68 3.34 -1 3 C-0.67 2.01 -0.34 1.02 0 0 Z " fill="#C8A98D" transform="translate(237,175)"/>
<path d="M0 0 C1.60080151 4.00200378 0.29279692 7.04556236 -1 11 C-1.33 11 -1.66 11 -2 11 C-2.25 3.375 -2.25 3.375 0 0 Z " fill="#728098" transform="translate(48,170)"/>
<path d="M0 0 C1.73662334 3.22515763 2.8905928 6.51329166 4 10 C2.68 9.34 1.36 8.68 0 8 C0 5.36 0 2.72 0 0 Z " fill="#5A6886" transform="translate(68,144)"/>
<path d="M0 0 C2.15377564 2.62198774 3.40072174 4.64404172 4 8 C3.01 7.67 2.02 7.34 1 7 C-0.1875 3.9375 -0.1875 3.9375 -1 1 C-0.67 0.67 -0.34 0.34 0 0 Z " fill="#455575" transform="translate(61,128)"/>
</svg>
